<svg xmlns="http://www.w3.org/2000/svg" viewBox="0 0 20.95 5.13"><defs><style>.cls-1{fill:#fff;}</style></defs><g id="Livello_2" data-name="Livello 2"><g id="Livello_1-2" data-name="Livello 1"><path class="cls-1" d="M2.73,3c.11-.15.1-.23,0-.41.14,0,.14,0,.32.11.11-.18,0-.33-.26-.4.12-.11.19-.1.4,0A.21.21,0,0,0,3,2.06a.7.7,0,0,0-.35,0,1.3,1.3,0,0,0-.42.18c-.24.15-.48.33-.72.49a2.69,2.69,0,0,1-.29.16c-.08,0-.12,0-.09-.09a.58.58,0,0,1,.05-.14,8.1,8.1,0,0,1,.7-1.49A2.16,2.16,0,0,1,3.35.05,1.72,1.72,0,0,1,5.08.6,1.44,1.44,0,0,1,5.35,2c0,.1-.07.2-.09.3s0,.09,0,.1.07,0,.1,0a.41.41,0,0,0,.11-.07.83.83,0,0,1,.59-.2,1.67,1.67,0,0,0,.31-.05V2l-.35-.13a.77.77,0,0,1,.55-.26.24.24,0,0,1,.26.17c-.16,0-.33-.06-.46.11.31,0,.43.05.4.24a.67.67,0,0,0-.19,0,.61.61,0,0,0-.18,0c.2,0,.25.1.22.27-.15-.13-.28,0-.4,0l-1,.81a13.74,13.74,0,0,1-2,1.39,3.32,3.32,0,0,1-2.35.37,1.26,1.26,0,0,1-.58-.28A.8.8,0,0,1,.39,3.43l0,.19c0,.23.09.35.32.29a1.67,1.67,0,0,0,.44-.17c.25-.17.49-.36.73-.53a3.52,3.52,0,0,1,.42-.29C2.51,2.78,2.58,2.8,2.73,3ZM4.47,2.6a.48.48,0,0,0-.63-.51,1,1,0,0,0-.59.51c-.27.49-.56,1-.84,1.44,0,.08-.1.14-.13.21s0,.3.15.3a.93.93,0,0,0,.4-.06,2.73,2.73,0,0,0,1.25-.92A1.9,1.9,0,0,0,4.47,2.6ZM3.41,1.85A1,1,0,0,0,4,1.66a.65.65,0,0,0,.16-.17c0-.1,0-.16-.1-.15a.55.55,0,0,1-.52-.26A.6.6,0,0,0,3.09.8a.36.36,0,0,0-.47.36C2.6,1.54,2.92,1.84,3.41,1.85ZM5.3,1.47c0-.22-.12-.3-.32-.21l-.12.07a.47.47,0,0,1-.36.09c-.08,0-.12,0-.12.1A.42.42,0,0,0,4.79,2,.51.51,0,0,0,5.3,1.47Z"/><path class="cls-1" d="M8.93,2.1A.57.57,0,0,0,8.8,2a.6.6,0,0,0-.29-.08A.71.71,0,0,0,8,2.18a.8.8,0,0,0-.22.59A.8.8,0,0,0,8,3.36a.73.73,0,0,0,.55.23.59.59,0,0,0,.29-.07.57.57,0,0,0,.13-.08v.12h.41V1.24H8.93Zm0,.67a.5.5,0,0,1-.11.32.36.36,0,0,1-.28.11.37.37,0,0,1-.28-.11.5.5,0,0,1-.11-.32.48.48,0,0,1,.11-.32.38.38,0,0,1,.28-.12.36.36,0,0,1,.28.12A.48.48,0,0,1,8.93,2.77Z"/><path class="cls-1" d="M10.34,1.94a.75.75,0,0,0-.57.24.84.84,0,0,0-.22.59.84.84,0,0,0,.22.59.74.74,0,0,0,.57.23.81.81,0,0,0,.47-.13.7.7,0,0,0,.27-.38l0-.08h-.43l0,0a.29.29,0,0,1-.3.18.36.36,0,0,1-.27-.1A.36.36,0,0,1,10,2.93h1.14V2.87a.41.41,0,0,0,0-.1.84.84,0,0,0-.22-.59A.74.74,0,0,0,10.34,1.94Zm0,.38a.37.37,0,0,1,.25.09.4.4,0,0,1,.11.19H10a.39.39,0,0,1,.1-.19A.37.37,0,0,1,10.34,2.32Z"/><rect class="cls-1" x="11.33" y="1.24" width="0.41" height="2.33"/><rect class="cls-1" x="12.06" y="1.97" width="0.41" height="1.59"/><path class="cls-1" d="M12.26,1.26a.24.24,0,0,0-.25.25.25.25,0,0,0,.07.19.24.24,0,0,0,.18.07.25.25,0,0,0,.19-.07.29.29,0,0,0,.07-.19.29.29,0,0,0-.07-.18A.25.25,0,0,0,12.26,1.26Z"/><polygon class="cls-1" points="13.72 1.97 13.37 3.08 13.01 1.97 12.57 1.97 13.12 3.56 13.61 3.56 14.15 1.97 13.72 1.97"/><path class="cls-1" d="M14.94,1.94a.75.75,0,0,0-.57.24.84.84,0,0,0-.22.59.84.84,0,0,0,.22.59.74.74,0,0,0,.57.23.81.81,0,0,0,.47-.13.7.7,0,0,0,.27-.38l0-.08h-.43l0,0a.29.29,0,0,1-.3.18.36.36,0,0,1-.27-.1.36.36,0,0,1-.11-.19h1.14V2.87a.41.41,0,0,0,0-.1.8.8,0,0,0-.22-.59A.74.74,0,0,0,14.94,1.94Zm0,.38a.37.37,0,0,1,.25.09.4.4,0,0,1,.11.19h-.72a.39.39,0,0,1,.1-.19A.37.37,0,0,1,14.94,2.32Z"/><path class="cls-1" d="M16.76,1.94a.6.6,0,0,0-.29.08.57.57,0,0,0-.13.08V1.24h-.41V3.56h.41V3.44a.57.57,0,0,0,.13.08.59.59,0,0,0,.29.07.73.73,0,0,0,.55-.23.8.8,0,0,0,.22-.59.8.8,0,0,0-.22-.59A.71.71,0,0,0,16.76,1.94Zm.36.83a.5.5,0,0,1-.11.32.41.41,0,0,1-.56,0,.5.5,0,0,1-.11-.32.48.48,0,0,1,.11-.32.39.39,0,0,1,.56,0A.48.48,0,0,1,17.12,2.77Z"/><path class="cls-1" d="M18.44,1.94a.77.77,0,0,0-.58.24.81.81,0,0,0-.23.59.81.81,0,0,0,.23.59.76.76,0,0,0,.58.23A.74.74,0,0,0,19,3.36a.81.81,0,0,0,.23-.59A.81.81,0,0,0,19,2.18.75.75,0,0,0,18.44,1.94Zm.27,1.15a.33.33,0,0,1-.27.11.34.34,0,0,1-.28-.11A.45.45,0,0,1,18,2.77a.44.44,0,0,1,.12-.32.35.35,0,0,1,.28-.12.34.34,0,0,1,.27.12.44.44,0,0,1,.12.32A.45.45,0,0,1,18.71,3.09Z"/><path class="cls-1" d="M20.72,2.18a.77.77,0,0,0-.58-.24.75.75,0,0,0-.57.24.81.81,0,0,0-.23.59.81.81,0,0,0,.23.59.74.74,0,0,0,.57.23.76.76,0,0,0,.58-.23A.81.81,0,0,0,21,2.77.81.81,0,0,0,20.72,2.18Zm-.3.91a.34.34,0,0,1-.28.11.37.37,0,0,1-.28-.11.5.5,0,0,1-.11-.32.48.48,0,0,1,.11-.32.38.38,0,0,1,.28-.12.35.35,0,0,1,.28.12.43.43,0,0,1,.11.32A.45.45,0,0,1,20.42,3.09Z"/></g></g></svg>