<svg width="512" height="512" viewBox="0 0 512 512" fill="none" xmlns="http://www.w3.org/2000/svg">
<g clip-path="url(#clip0_244_2)">
<path d="M450.051 146.72C460.771 124.333 459.252 97.2124 440.85 78.8111L433.19 71.1506C414.789 52.7493 386.938 49.8217 365.281 61.95C350.039 70.486 317.783 52.737 315.395 41.2406C310.381 17.0967 287.08 0 261.228 0L248.064 0.668672C217.793 2.20672 194.038 27.1995 194.038 57.5099C195.072 70.656 172.544 80.384 159.458 71.8316C137 49.3732 100.588 49.3732 78.1292 71.8316L71.8305 78.1302C52.5722 97.3896 50.3347 126.605 63.6027 149.094C72.704 164.522 63.829 191.829 48.8765 195.505C21.6689 202.195 0 222.208 0 251.697V261.217C0 287.333 19.0239 306.819 42.6885 315.214C67.242 323.924 65.3056 359.941 62.7886 364.257C49.9466 386.275 52.9603 414.999 71.8316 433.87L78.1302 440.168C96.9062 458.945 124.948 461.133 147.412 449.403C163.499 441.002 193.537 456.704 196.028 469.541C200.857 494.417 224.994 512 251.549 512H259.743C285.775 512 307.816 494.916 315.266 471.346C320.138 455.933 343.724 440.32 367.186 450.19C389.506 459.58 416.998 457.04 434.441 439.598L440.169 433.87C462.628 411.411 462.628 374.999 440.169 352.542C430.081 343.382 443.052 318.123 454.491 317.962C486.254 317.962 512.001 292.214 512.001 260.452V250.607C512.001 224.16 494.445 200.571 469.735 195.141C453.12 191.488 444.672 157.952 450.051 146.72V146.72Z" fill="#45C9A5"/>
<path d="M211.205 334.162L144.47 267.427C136.472 259.428 136.472 246.462 144.47 238.464C152.469 230.466 165.435 230.466 173.433 238.464L225.687 290.718L338.566 177.838C346.565 169.84 359.532 169.84 367.529 177.838C375.526 185.837 375.527 198.804 367.529 206.801L240.169 334.162C231.765 341.333 216.747 340.309 211.205 334.162V334.162Z" fill="white"/>
</g>
<defs>
<clipPath id="clip0_244_2">
<rect width="512" height="512" fill="white"/>
</clipPath>
</defs>
</svg>
