<svg xmlns="http://www.w3.org/2000/svg" xmlns:xlink="http://www.w3.org/1999/xlink" viewBox="0 0 572 254"><defs><style>.cls-1{fill:none;}.cls-2{clip-path:url(#clip-path);}.cls-3{fill:#007e8a;}.cls-10,.cls-11,.cls-12,.cls-13,.cls-14,.cls-15,.cls-16,.cls-17,.cls-18,.cls-19,.cls-20,.cls-21,.cls-22,.cls-23,.cls-24,.cls-25,.cls-26,.cls-3,.cls-4,.cls-5,.cls-6,.cls-7,.cls-8,.cls-9{fill-rule:evenodd;}.cls-4{fill:#bf836e;}.cls-5{fill:#fabe00;}.cls-6{fill:#ffad93;}.cls-7{fill:#fb5058;}.cls-8{fill:#fff;}.cls-9{fill:#9c006d;}.cls-10{fill:#440063;}.cls-11{fill:#8c9b9b;}.cls-12{fill:#616b6a;}.cls-13{fill:#8c9c9c;}.cls-14{fill:#00ccbe;}.cls-15{fill:#c2826e;}.cls-16{fill:#450064;}.cls-17{fill:#00cbbd;}.cls-18{fill:#a76854;}.cls-19{fill:#333;}.cls-20{fill:#c84046;}.cls-21{fill-opacity:0.1;isolation:isolate;opacity:0.1;}.cls-22{fill:#eea892;}.cls-23{fill:#00a198;}.cls-24{fill:#006d68;}.cls-25{fill:#666;}.cls-26{fill:#ccc;}.cls-27{fill:#38b5af;}</style><clipPath id="clip-path" transform="translate(0)"><rect class="cls-1" width="572" height="254"/></clipPath></defs><g id="Livello_2" data-name="Livello 2"><g id="Livello_1-2" data-name="Livello 1"><g class="cls-2"><path class="cls-3" d="M559.34,244.45v-9.61L16.25,227.68l0,26.32Z" transform="translate(0)"/><path class="cls-4" d="M96.77,138,80.33,113.5l2-1.37,14.74,22-7.74-27.47,2.36-.67L100.19,136l-1.51.43.13.18Z" transform="translate(0)"/><path class="cls-5" d="M102.86,126.15a15.42,15.42,0,1,0,10.89,4.52A14.85,14.85,0,0,0,102.86,126.15Z" transform="translate(0)"/><path class="cls-6" d="M45,65.84l1.72,11.35,12.33,8.06-19,31.88,14,4.81L70,90.75q4.16-8.16-3.22-12.31Z" transform="translate(0)"/><path class="cls-7" d="M32.88,89.91a15,15,0,0,0-11.36,3.33,14.66,14.66,0,0,0-5.65,10.33,15.34,15.34,0,0,0,13.64,17,15.36,15.36,0,0,0,17-13.64A14.84,14.84,0,0,0,43.2,95.62,14.86,14.86,0,0,0,32.88,89.91Z" transform="translate(0)"/><path class="cls-6" d="M105.39,213.5l-10-2.65-5.2,19,9.61,1.22Z" transform="translate(0)"/><path class="cls-8" d="M111,242v-2.14l-11.1-9.78-9.67-.2-1,11.45h5.29l.31-3.91,2.84,3.91Z" transform="translate(0)"/><path class="cls-9" d="M63,174.11q2.43,3.81,3.75,4.54l33.73-.69L92.7,212.28l14.71,2.15,16.53-42.3a15.53,15.53,0,0,0,.55-6.79A11.77,11.77,0,0,0,123,160.7l0-.07q-2.52-5.76-11.77-6.21l-30.85.2q-10.74-.12-14.83,3.4A11.78,11.78,0,0,0,63,174.11Z" transform="translate(0)"/><path class="cls-6" d="M153.15,214.18,144.1,221,155,234.69,162.8,227Z" transform="translate(0)"/><path class="cls-7" d="M123.65,165.09A14.72,14.72,0,0,0,112,158.4l-37.16-.81-13.3,21.15,47.05-.41,37.22,45,10.07-9.28Z" transform="translate(0)"/><path class="cls-8" d="M164.57,234.84l9-2,9.28-8.71L162.69,227l-8,7.32,6.8,7.29,6-3.63Z" transform="translate(0)"/><path class="cls-10" d="M68.84,134.88q1.23-9.25-12.4-15.38t-20.06,3.32q-6.32,9.3,4,24.07l23.52,30.82,23.33-19.24Z" transform="translate(0)"/><path class="cls-8" d="M122.08,137.69H84.59l4.7,23.46h28.09Z" transform="translate(0)"/><path class="cls-11" d="M82.4,209.44h-.24a3.26,3.26,0,0,0-.9.13,4,4,0,0,0-.56.26l-.24.15-.26.22L52.06,233l3.8,4.72,23.43-18.95L79.64,238l6.06-.1-.35-19,22.72,18.39,3.82-4.72L84.13,210.1l-.19-.13-.39-.23h0a2.66,2.66,0,0,0-.78-.26l-.1,0Z" transform="translate(0)"/><path class="cls-12" d="M41.6,173.75a1,1,0,0,1-.08-.11L29.35,154.19a2.28,2.28,0,0,0-3.86,2.43L37.61,176q10,18.28,28,17.82H77.9v24.87h8.55V193.81H97.92a2.18,2.18,0,0,0,1.61-.67,2.12,2.12,0,0,0,.66-1.61,2.16,2.16,0,0,0-.66-1.62,2.26,2.26,0,0,0-1.61-.67H86.45v-2H77.9v2H65.5Q50.2,189.5,41.6,173.75Z" transform="translate(0)"/><path class="cls-13" d="M104.71,179.89a5.26,5.26,0,0,0-3.86-1.59H63.7a5.45,5.45,0,0,0-5.48,5.48h0a5.48,5.48,0,0,0,5.48,5.48h37.15a5.5,5.5,0,0,0,5.47-5.48h0A5.32,5.32,0,0,0,104.71,179.89Z" transform="translate(0)"/><path class="cls-13" d="M49,175.39a5.28,5.28,0,0,0,2.39-3.48,5.23,5.23,0,0,0-.77-4.11L30.46,136.56A5.34,5.34,0,0,0,27,134.18a5.22,5.22,0,0,0-4.11.75v0a5.39,5.39,0,0,0-2.4,3.45,5.3,5.3,0,0,0,.76,4.12l20.18,31.23a5.42,5.42,0,0,0,3.45,2.4,5.29,5.29,0,0,0,4.12-.76Z" transform="translate(0)"/><path class="cls-14" d="M48.18,236.58a5.58,5.58,0,1,0,11.15,0,5.58,5.58,0,1,0-11.15,0Z" transform="translate(0)"/><path class="cls-14" d="M86.6,240.51a5.58,5.58,0,1,0-4,1.64A5.38,5.38,0,0,0,86.6,240.51Z" transform="translate(0)"/><path class="cls-14" d="M107.57,240.51a5.41,5.41,0,0,0,4,1.64,5.6,5.6,0,0,0,5.58-5.58,5.4,5.4,0,0,0-1.64-4,5.3,5.3,0,0,0-3.94-1.64,5.59,5.59,0,0,0-4,9.54Z" transform="translate(0)"/><path class="cls-6" d="M36.19,57.49a2.19,2.19,0,0,0,.19,1.7l1.35,2.47-4.25-2.12a2.15,2.15,0,0,0-1.72-.1,2.2,2.2,0,0,0-1.41,2.84,2.17,2.17,0,0,0,1.12,1.29L34,64.83l-3.72.68a2.21,2.21,0,0,0-1.8,2.62,2.24,2.24,0,0,0,2.6,1.8l1.69-.31a8.18,8.18,0,0,0-.14,5.71l.08.2a.82.82,0,0,1,.06.19A2.2,2.2,0,0,0,34,77a2,2,0,0,0,1.69.13,2.25,2.25,0,0,0,1.43-2.85c0-.14-.1-.28-.16-.43a3.8,3.8,0,0,1,.22-2.9v0a3.9,3.9,0,0,1,2.29-2A3.61,3.61,0,0,1,42,69a2.59,2.59,0,0,0,.5.24,3.84,3.84,0,0,1,1.85,2.21h0a3.66,3.66,0,0,1-.2,3l0,0a3.91,3.91,0,0,1-2.29,2,4.52,4.52,0,0,1-.9.2,2.26,2.26,0,0,0-1,4.06,2.15,2.15,0,0,0,1.68.38,10.16,10.16,0,0,0,1.61-.38h0a8.27,8.27,0,0,0,4.82-4.24,8,8,0,0,0,.45-6.38v0a8.12,8.12,0,0,0-3.67-4.56L40.32,57A2.18,2.18,0,0,0,39,56a2.22,2.22,0,0,0-1.71.18A2.32,2.32,0,0,0,36.19,57.49Z" transform="translate(0)"/><path class="cls-10" d="M66.78,78.44l-6.93-4L55,82.59l4.06,2.66-19,31.88,14,4.81L70,90.75Q74.16,82.59,66.78,78.44Z" transform="translate(0)"/><path class="cls-6" d="M38.56,110.26q6.27-4.83-.55-10.37L19.58,89.11l-4.53,26.26,20,9.74,14.71-5.58L35,112.67Z" transform="translate(0)"/><path class="cls-6" d="M64.59,171.21a5.14,5.14,0,0,0,4-.92L86.9,157.07l6.23,3.11a5.33,5.33,0,0,0,7.4-6.46,5.18,5.18,0,0,0-2.66-3.07l-9.09-4.54a5.25,5.25,0,0,0-5.48.45l-20.94,15.1a5.28,5.28,0,0,0-1.2,7.4A5.08,5.08,0,0,0,64.59,171.21Z" transform="translate(0)"/><path class="cls-10" d="M64.86,177.56,56,165.84l25.39-19.37,8.6,12.12Z" transform="translate(0)"/><path class="cls-10" d="M60.41,179.06a7.36,7.36,0,0,1-6.24-3.44L31.29,139.15a7.36,7.36,0,1,1,12.46-7.83l22.88,36.46a7.37,7.37,0,0,1-2.32,10.15A7.23,7.23,0,0,1,60.41,179.06Z" transform="translate(0)"/><path class="cls-7" d="M8.47,110.71q-.79,3-4.56,9.12T0,130.1a23.65,23.65,0,0,0,.51,6.71,21.12,21.12,0,0,0,3.23,6.3q2.55,3.69,9,5.62a27.56,27.56,0,0,0,13.58.47q7.2-1.47,10.28-5.77a18.58,18.58,0,0,0,3.54-9.14,18,18,0,0,0-1.6-9.3c-1.37-3-4.15-5.74-8.31-8.27q-.34-5.4-1-16-1.9-10.68-8.32-12.27a12.24,12.24,0,0,0-4.23-.41Q12,88.36,10,91.77a11.9,11.9,0,0,0-2.49,6.57,24.21,24.21,0,0,0,.84,5.72A13.66,13.66,0,0,1,8.47,110.71Z" transform="translate(0)"/><path class="cls-5" d="M36,101.63a1.67,1.67,0,0,1-1.05-.38,1.64,1.64,0,0,1-.21-2.3,13.31,13.31,0,0,0,2-3.69,12.36,12.36,0,0,0,.36-8.76,18.22,18.22,0,0,1-.49-10.39,16.48,16.48,0,0,1,1.12-3l0-.09.54-.94a1.63,1.63,0,1,1,2.84,1.61l-.5.89a12.77,12.77,0,0,0-.87,2.39,15,15,0,0,0,.42,8.52,15.72,15.72,0,0,1-.42,11A16.72,16.72,0,0,1,37.29,101,1.64,1.64,0,0,1,36,101.63Z" transform="translate(0)"/><path class="cls-3" d="M221.15,240.64l-7.81-2.4,30.52-99.36,7.81,2.4Zm94.48,0-30.52-99.36,7.81-2.4,30.52,99.36Z" transform="translate(0)"/><path class="cls-8" d="M123.74,154.35H413V3.29H123.74Z" transform="translate(0)"/><path class="cls-3" d="M127,151.06H409.72V6.54H127Zm-6.53,6.55H416.26V0H120.5Z" transform="translate(0)"/><path class="cls-7" d="M267.23,24.42a49.7,49.7,0,0,0-35.5,15.16,50,50,0,0,0-15.18,36.69A50,50,0,0,0,231.73,113a51.86,51.86,0,0,0,73.3,0,49.85,49.85,0,0,0,15.18-35.53h-53Z" transform="translate(0)"/><path class="cls-15" d="M268.38,130.18a52.22,52.22,0,0,1-38.1-15.77A52.29,52.29,0,0,1,214.5,76.27a52.22,52.22,0,0,1,15.78-38.14A51.89,51.89,0,0,1,267.2,22.38l.07,4.08A48,48,0,0,0,233.17,41a48.23,48.23,0,0,0-14.58,35.25,48.26,48.26,0,0,0,14.58,35.24,49.79,49.79,0,0,0,70.41,0,48.07,48.07,0,0,0,14.59-34.12l4.08.08a52.07,52.07,0,0,1-15.78,36.94A52.1,52.1,0,0,1,268.38,130.18Z" transform="translate(0)"/><path class="cls-7" d="M254.45,38.33a7.91,7.91,0,1,0-11.22,11.16,7.91,7.91,0,0,0,13.52-5.6A7.6,7.6,0,0,0,254.45,38.33Z" transform="translate(0)"/><path class="cls-7" d="M257,74.73a7.93,7.93,0,0,0-5.56-13.52,7.91,7.91,0,0,0-5.6,13.52,7.6,7.6,0,0,0,5.6,2.38A7.45,7.45,0,0,0,257,74.73Z" transform="translate(0)"/><path class="cls-7" d="M226.09,88.29a7.9,7.9,0,1,0,7.9-7.91,8,8,0,0,0-7.9,7.91Z" transform="translate(0)"/><path class="cls-7" d="M263.23,113.68a8,8,0,0,0-5.6-13.57,7.56,7.56,0,0,0-5.56,2.34,7.92,7.92,0,1,0,11.16,11.23Z" transform="translate(0)"/><path class="cls-7" d="M290.87,113.68a7.93,7.93,0,0,0,0-11.23,7.91,7.91,0,0,0-13.52,5.6,7.87,7.87,0,0,0,7.92,7.94A7.71,7.71,0,0,0,290.87,113.68Z" transform="translate(0)"/><path class="cls-7" d="M309.79,92.38a7.92,7.92,0,0,0-5.58-13.52,7.75,7.75,0,0,0-5.62,2.32,7.92,7.92,0,1,0,11.2,11.2Z" transform="translate(0)"/><path class="cls-7" d="M265,87.76a7.94,7.94,0,0,0,7.9,7.94,7.95,7.95,0,1,0-7.9-7.94Z" transform="translate(0)"/><path class="cls-16" d="M286.86,93.6a8.5,8.5,0,0,1-1.75-5.31,8.93,8.93,0,0,1,8.71-8.93l.07,2.45a6.34,6.34,0,0,0-4.43,1.9,6.26,6.26,0,0,0-1.9,4.58,6.08,6.08,0,0,0,1.24,3.82Z" transform="translate(0)"/><path class="cls-8" d="M293.38,112.59a7.49,7.49,0,0,0,1-5.79,7.42,7.42,0,0,0-3.47-4.78,7.16,7.16,0,0,0-5.76-.92h0l-.57.14.94,4L278,107l1.64,7,7.45-1.76.92,3.95a5.13,5.13,0,0,0,.59-.12h0A7.4,7.4,0,0,0,293.38,112.59Z" transform="translate(0)"/><path class="cls-8" d="M242.31,94.29a7.65,7.65,0,0,0-8.3-11.5h0a3.39,3.39,0,0,0-.57.14l.94,4-7.43,1.74,1.63,7L236,93.86l1,4,.57-.14h0A7.34,7.34,0,0,0,242.31,94.29Z" transform="translate(0)"/><path class="cls-8" d="M263.43,74.24l-6.53,2.91,3.12,7-3.69,1.62c.08.2.16.39.24.55v0a7.61,7.61,0,0,0,10.13,3.89,7.67,7.67,0,0,0,3.8-10.19v0c-.09-.18-.18-.36-.26-.55l-3.72,1.76Z" transform="translate(0)"/><path class="cls-8" d="M241.51,47.25A8.78,8.78,0,0,0,250.18,56a8.73,8.73,0,0,0,6.15-14.85,8.55,8.55,0,0,0-6.15-2.52,8.29,8.29,0,0,0-6.11,2.52A8.39,8.39,0,0,0,241.51,47.25Z" transform="translate(0)"/><path class="cls-8" d="M255.65,58a6,6,0,1,0-1.76,4.22A5.73,5.73,0,0,0,255.65,58Z" transform="translate(0)"/><path class="cls-8" d="M252.69,47.1a7.29,7.29,0,0,0-2.21,5.3,7.45,7.45,0,0,0,2.21,5.4A7.29,7.29,0,0,0,258,60a7.41,7.41,0,0,0,7.56-7.57A7.54,7.54,0,0,0,258,44.85,7.13,7.13,0,0,0,252.69,47.1Z" transform="translate(0)"/><path class="cls-8" d="M253.24,93a8.3,8.3,0,0,0-6.11,2.51,8.47,8.47,0,0,0-2.53,6.18,8.69,8.69,0,0,0,8.64,8.65,8.35,8.35,0,0,0,6.15-2.56,8.26,8.26,0,0,0,2.51-6.09A8.57,8.57,0,0,0,253.24,93Z" transform="translate(0)"/><path class="cls-8" d="M262.74,112.41a6,6,0,0,0,0-8.45,5.86,5.86,0,0,0-4.23-1.74,5.62,5.62,0,0,0-4.19,1.74,5.86,5.86,0,0,0,0,8.45,5.6,5.6,0,0,0,4.19,1.76A5.83,5.83,0,0,0,262.74,112.41Z" transform="translate(0)"/><path class="cls-8" d="M268,97.27A7.35,7.35,0,0,0,262.68,95a7.16,7.16,0,0,0-5.35,2.25,7.58,7.58,0,0,0,0,10.7,7.24,7.24,0,0,0,5.35,2.21A7.58,7.58,0,0,0,268,97.27Z" transform="translate(0)"/><path class="cls-8" d="M310.12,77.31v-.1H293.45a8.69,8.69,0,0,0,2.18,8.57c.34.34.67.64,1,.9a6.07,6.07,0,0,0,.45,8,5.73,5.73,0,0,0,4.21,1.74,6,6,0,0,0,5.8-4.42,7.56,7.56,0,0,0,2.54.41,7.43,7.43,0,0,0,5.37-2.2,7.58,7.58,0,0,0,0-10.68A7.15,7.15,0,0,0,310.12,77.31Z" transform="translate(0)"/><path class="cls-16" d="M305,99.22a8.57,8.57,0,0,1-3.51-5.6,9,9,0,0,1,6.06-10l.72,2.35a6.07,6.07,0,0,0-3.24,2.38,6.23,6.23,0,0,0-1.12,4.9,6.12,6.12,0,0,0,2.54,4Z" transform="translate(0)"/><path class="cls-16" d="M275.85,100.27a8.65,8.65,0,0,1-3.53-5.62,8.74,8.74,0,0,1,1.56-6.73,8.58,8.58,0,0,1,4.48-3.31l.75,2.34a6.1,6.1,0,0,0-3.23,2.4,6.36,6.36,0,0,0,1.41,8.94Z" transform="translate(0)"/><path class="cls-8" d="M227.52,62a7.58,7.58,0,0,0-1.76,5.61,7.38,7.38,0,0,0,2.7,5.17,7.3,7.3,0,0,0,5.62,1.8,7.42,7.42,0,0,0,5.16-2.78l0,0,.43-.47-3.19-2.54,4.94-5.87L236,58.27l-5,5.85L228,61.5a3.47,3.47,0,0,1-.39.43Z" transform="translate(0)"/><path class="cls-16" d="M249.43,53.15l-1.94-1.5a6,6,0,0,0,1.24-3.79,6.26,6.26,0,0,0-1.92-4.6,6.34,6.34,0,0,0-4.42-1.91l.08-2.45a9,9,0,0,1,8.71,9A8.4,8.4,0,0,1,249.43,53.15Z" transform="translate(0)"/><path class="cls-16" d="M269.82,117.55a5.84,5.84,0,0,0-2.32-3.2,6.09,6.09,0,0,0-4.84-1.1,6,6,0,0,0-4.13,2.43l-2-1.47a8.43,8.43,0,0,1,5.71-3.39,8.56,8.56,0,0,1,6.65,1.53,8.25,8.25,0,0,1,3.24,4.52Z" transform="translate(0)"/><path class="cls-14" d="M244.6,63.51q-8,7.84,0,15.76Q252.78,71.62,244.6,63.51Z" transform="translate(0)"/><path class="cls-14" d="M260.35,76.76q-9.09-6.57-15.53,2.66Q253.72,86.14,260.35,76.76Z" transform="translate(0)"/><path class="cls-16" d="M246.44,90.58l-1.93-1.51a6,6,0,0,0,1.25-3.8,6.14,6.14,0,0,0-1.9-4.57,6.38,6.38,0,0,0-4.43-1.92l.08-2.45A8.85,8.85,0,0,1,245.58,79a8.61,8.61,0,0,1,2.63,6.32A8.41,8.41,0,0,1,246.44,90.58Z" transform="translate(0)"/><path class="cls-14" d="M295.77,85.49q-7.93,7.86,0,15.75Q303.95,93.64,295.77,85.49Z" transform="translate(0)"/><path class="cls-14" d="M255,99.67q-11,2-8.89,12.94Q257.18,111,255,99.67Z" transform="translate(0)"/><path class="cls-14" d="M261.25,32.07q-11,1.91-8.93,13Q263.39,43.35,261.25,32.07Z" transform="translate(0)"/><path class="cls-14" d="M241.12,63.55q1.19-11.08-10-12.15Q229.72,62.55,241.12,63.55Z" transform="translate(0)"/><path class="cls-14" d="M240.8,104.25Q242,93.1,230.75,92.06,229.31,103.22,240.8,104.25Z" transform="translate(0)"/><path class="cls-3" d="M263.74,105.19a3.81,3.81,0,0,0,6.5-2.66,3.75,3.75,0,0,0-1.11-2.74,3.83,3.83,0,0,0-5.39,0,3.78,3.78,0,0,0-1.1,2.74A3.65,3.65,0,0,0,263.74,105.19Z" transform="translate(0)"/><path class="cls-3" d="M258.1,69.68a3.58,3.58,0,0,0,2.72,1.19,3.91,3.91,0,0,0,3.8-3.85,3.85,3.85,0,0,0-1.1-2.74,3.72,3.72,0,0,0-2.7-1.06,3.77,3.77,0,0,0-2.72,1.06A3.85,3.85,0,0,0,257,67,3.55,3.55,0,0,0,258.1,69.68Z" transform="translate(0)"/><path class="cls-3" d="M283.52,112a3.91,3.91,0,0,0-5.42,0,3.86,3.86,0,0,0-1.1,2.74,3.52,3.52,0,0,0,1.1,2.66,3.7,3.7,0,0,0,5.42,0,3.52,3.52,0,0,0,1.1-2.66A3.86,3.86,0,0,0,283.52,112Z" transform="translate(0)"/><path class="cls-3" d="M232.36,77.13A3.71,3.71,0,0,0,229.64,76,3.64,3.64,0,0,0,227,77.13a3.75,3.75,0,0,0-1.11,2.74A3.54,3.54,0,0,0,227,82.53a3.58,3.58,0,0,0,2.67,1.14,3.64,3.64,0,0,0,2.72-1.14,3.53,3.53,0,0,0,1.1-2.66A3.74,3.74,0,0,0,232.36,77.13Z" transform="translate(0)"/><path class="cls-7" d="M277.41,14.48l-1.19,0V67.58h53c0-.41.06-.82.06-1.21a50,50,0,0,0-15.18-36.69A49.92,49.92,0,0,0,277.41,14.48Z" transform="translate(0)"/><path class="cls-15" d="M331.21,67.78l-4.07-.41a8.64,8.64,0,0,0,.06-1,48.3,48.3,0,0,0-14.59-35.25,48.14,48.14,0,0,0-35.2-14.59h-1.12l-.14-4.08q.63,0,1.26,0a52.08,52.08,0,0,1,38.09,15.8,52.28,52.28,0,0,1,15.78,38.14A13.58,13.58,0,0,1,331.21,67.78Z" transform="translate(0)"/><path class="cls-7" d="M294.16,37.35a7.88,7.88,0,0,0,0-11.19,7.92,7.92,0,0,0-13.5,5.6,7.9,7.9,0,0,0,13.5,5.59Z" transform="translate(0)"/><path class="cls-7" d="M305.5,49.84a7.61,7.61,0,0,0-2.35,5.61,7.93,7.93,0,0,0,15.85,0,7.91,7.91,0,0,0-13.5-5.61Z" transform="translate(0)"/><path class="cls-7" d="M282.88,49.21a7.64,7.64,0,0,0-2.37,5.62,7.93,7.93,0,0,0,15.86,0A7.72,7.72,0,0,0,294,49.21a7.8,7.8,0,0,0-11.16,0Z" transform="translate(0)"/><path class="cls-16" d="M306.84,49a8.77,8.77,0,0,1-1.69-5.3,9,9,0,0,1,8.7-8.92l0,2.45a6.51,6.51,0,0,0-6.3,6.47,6.25,6.25,0,0,0,1.22,3.85Z" transform="translate(0)"/><path class="cls-8" d="M322.56,53c-.1-.19-.18-.38-.27-.57l-3.71,1.72-3.09-7L309,50.07l3.13,7-3.7,1.64c.08.2.16.39.24.55v0a7.41,7.41,0,0,0,4.26,4,7.55,7.55,0,0,0,5.88-.14A7.7,7.7,0,0,0,322.56,53Z" transform="translate(0)"/><path class="cls-16" d="M285.41,63.65,283.05,63a9,9,0,0,1,10.74-6.37,8.47,8.47,0,0,1,4.74,2.94l-1.91,1.55a6,6,0,0,0-3.39-2.1,6.52,6.52,0,0,0-7.82,4.64Z" transform="translate(0)"/><path class="cls-8" d="M296.57,33.93a8.65,8.65,0,1,0-17.3,0,8.65,8.65,0,1,0,17.3,0Z" transform="translate(0)"/><path class="cls-8" d="M281.54,44.67a5.62,5.62,0,0,0,1.75,4.19,5.71,5.71,0,0,0,4.21,1.76,5.77,5.77,0,0,0,4.23-1.76,5.71,5.71,0,0,0,1.72-4.19,5.89,5.89,0,0,0-1.72-4.24,5.82,5.82,0,0,0-4.23-1.73,5.94,5.94,0,0,0-6,6Z" transform="translate(0)"/><path class="cls-8" d="M301.17,33.77a7.32,7.32,0,0,0-5.35-2.23,7.16,7.16,0,0,0-5.32,2.23,7.34,7.34,0,0,0-2.22,5.33,7.56,7.56,0,0,0,7.54,7.57,7.34,7.34,0,0,0,5.35-2.21,7.26,7.26,0,0,0,2.21-5.36A7.37,7.37,0,0,0,301.17,33.77Z" transform="translate(0)"/><path class="cls-14" d="M286.13,38.45q-8,7.88,0,15.77Q294.29,46.57,286.13,38.45Z" transform="translate(0)"/><path class="cls-14" d="M316.24,57.49q-5.16-9.94-15.07-4.62Q306.08,63,316.24,57.49Z" transform="translate(0)"/><path class="cls-3" d="M304.29,34.65A3.63,3.63,0,0,0,305.42,32a3.79,3.79,0,0,0-3.84-3.81,3.76,3.76,0,0,0-2.7,1.09,3.71,3.71,0,0,0-1.1,2.72,3.64,3.64,0,0,0,1.1,2.68,3.69,3.69,0,0,0,2.7,1.14A3.62,3.62,0,0,0,304.29,34.65Z" transform="translate(0)"/><path class="cls-3" d="M302.9,66.92a3.74,3.74,0,0,0,2.72-1.12,3.7,3.7,0,0,0,1.08-2.7,3.79,3.79,0,0,0-1.08-2.74,3.86,3.86,0,0,0-2.72-1.07,3.68,3.68,0,0,0-3.79,3.81,3.7,3.7,0,0,0,1.08,2.7A3.64,3.64,0,0,0,302.9,66.92Z" transform="translate(0)"/><path class="cls-14" d="M144.86,26.81h41.35V22.72H144.86Zm220.25,0h27.77V22.72H365.11ZM144.86,36.1H179V32H144.86Zm232.47,0h15.55V32H377.33ZM144.86,45.45h16.65v-4.1H144.86Zm21.43,0h19.92v-4.1H166.29Z" transform="translate(0)"/><path class="cls-11" d="M431.7,212.81a2.61,2.61,0,0,0-.54-.24,3.1,3.1,0,0,1,.87.48l.08.07A2.94,2.94,0,0,0,431.7,212.81Zm-4.62,2.95a3,3,0,0,1,.66-2.25,4.89,4.89,0,0,1,.4-.39L400.2,235.73l3.85,4.76L427,222l-.34,19.15,6.11.11.34-19.45-4.86-3.95A3,3,0,0,1,427.08,215.76Zm5.25-2.44c.06.06.11.13.16.19a2.91,2.91,0,0,1,.68,1.7,2.72,2.72,0,0,1,0,.28l-.12,6.27,23.63,19.11,3.83-4.76-28.41-23Z" transform="translate(0)"/><path class="cls-12" d="M425.86,221.7h8.62V190h-8.62Z" transform="translate(0)"/><path class="cls-12" d="M459.25,152.28a2.25,2.25,0,0,0-1.69.49,2.23,2.23,0,0,0-.87,1.53l-2.77,23.41q-1.82,12-14.12,14.31H415.08a2.27,2.27,0,0,0-1.63.67,2.29,2.29,0,0,0-.67,1.64,2.24,2.24,0,0,0,.67,1.62,2.19,2.19,0,0,0,1.63.67H440a1.26,1.26,0,0,0,.39,0q15.86-2.82,18.1-18.27v-.06l2.77-23.41a2.32,2.32,0,0,0-2-2.57Z" transform="translate(0)"/><path class="cls-13" d="M452.71,182.59a5.34,5.34,0,0,0-3.91-1.6H411.34a5.5,5.5,0,0,0-5.52,5.52h0a5.53,5.53,0,0,0,5.52,5.53H448.8a5.51,5.51,0,0,0,5.52-5.53h0A5.37,5.37,0,0,0,452.71,182.59Z" transform="translate(0)"/><path class="cls-13" d="M479.38,128.06a5.35,5.35,0,0,0-3.67-2.1h0q-10.77-.87-16.9-.85l-12,46q16.68,2.44,22.59,3h0a5.54,5.54,0,0,0,6.19-4.78l4.85-37.19A5.33,5.33,0,0,0,479.38,128.06Z" transform="translate(0)"/><path class="cls-17" d="M453.2,239.75a5.63,5.63,0,1,0,1.64-4A5.4,5.4,0,0,0,453.2,239.75Z" transform="translate(0)"/><path class="cls-17" d="M424.06,239.74a5.65,5.65,0,1,0,1.65-4A5.43,5.43,0,0,0,424.06,239.74Z" transform="translate(0)"/><path class="cls-17" d="M394.94,239.74a5.62,5.62,0,1,0,5.63-5.65,5.37,5.37,0,0,0-4,1.66A5.44,5.44,0,0,0,394.94,239.74Z" transform="translate(0)"/><path class="cls-18" d="M403.3,103.57a4.16,4.16,0,0,1,5,2.92l8.12,27.66a4.11,4.11,0,0,1-.34,3.2,4,4,0,0,1-2.51,2,3.94,3.94,0,0,1-3.2-.34,4,4,0,0,1-2-2.5l-7-23.81-1.49.36a4.22,4.22,0,0,1-2-8.2Z" transform="translate(0)"/><path class="cls-4" d="M393.46,116.83l-2.11-1.57,17.19-23.33,2.11,1.57Z" transform="translate(0)"/><path class="cls-5" d="M393.85,123.33l-4.36-4.08,4.59-6.28,4.45,4.31Z" transform="translate(0)"/><path class="cls-4" d="M396.82,120l-1.63-2.08,23-18.1,1.63,2.07Z" transform="translate(0)"/><path class="cls-18" d="M407.45,116.68a2.52,2.52,0,0,1-2-.1L397.86,113a2.43,2.43,0,0,1-1.31-1.51,2.47,2.47,0,0,1,.08-2,2.55,2.55,0,0,1,1.52-1.34,2.49,2.49,0,0,1,2,.11l7.55,3.63a2.62,2.62,0,0,1,1.23,3.52A2.49,2.49,0,0,1,407.45,116.68Z" transform="translate(0)"/><path class="cls-7" d="M416.08,154.32a6.14,6.14,0,0,1-5.45-8.94l16.9-33a6.13,6.13,0,1,1,10.91,5.6l-16.9,33A6.12,6.12,0,0,1,416.08,154.32Z" transform="translate(0)"/><path class="cls-7" d="M410.47,150.64l-5.31-19.12L417,128.23l5.31,19.12Z" transform="translate(0)"/><path class="cls-18" d="M427.7,152.37l-16.36-4.27,1.24-4.75,16.36,4.27Z" transform="translate(0)"/><path class="cls-17" d="M402.83,137l-16.39-.39,2.9,20.27h13.49Z" transform="translate(0)"/><path class="cls-8" d="M415,156.89l2.45-19.67-14.6-.21v19.88Z" transform="translate(0)"/><path class="cls-18" d="M414.48,163.43l-6.35-8.53,10.71-8a5.28,5.28,0,0,1,4.5-.88l10.85,2.8-2.66,10.3L423.14,157Z" transform="translate(0)"/><path class="cls-18" d="M450.82,111.2v-.92h-12l1,15.5ZM401.4,153.48l-3.5-.7q-6.9-.43-9.7,8.24l-14.08,51.3-7.45,4.19v4.17l12.48-1,14.77-33.58-.31-1.35c-.06-.33-.12-.65-.16-1q-1.4-9,6.64-11.72l18.29,7.73Z" transform="translate(0)"/><path class="cls-5" d="M414,243.68l4.14.91L414.37,228l-9.75,13.65-4.92.24-2.59,3.56,10-.23,5.37-6.64Z" transform="translate(0)"/><path class="cls-15" d="M408.77,188.47H424l-5.64-8.71L400.09,172q-8,2.72-6.64,11.72c0,.31.1.63.16,1l.31,1.35L405,233.92l-5.31,7.93,4.92-.24L414.37,228Z" transform="translate(0)"/><path class="cls-10" d="M464.77,145.6H434l-1.95,14-30.6-6.15,17,26.28,5.63,8.71h18.57c3.35,0,6.75.15,10.1-.05,4.7-.28,9.65-1.67,12.86-5.34,2.87-3.28,3.81-7.74,3.9-12a40.92,40.92,0,0,0-.3-5.64Z" transform="translate(0)"/><path class="cls-7" d="M467.22,115.62c0-3.47-1.62-5.24-4.94-5.34H450.82V145.6h13.95Z" transform="translate(0)"/><path class="cls-17" d="M430.76,122.12q-3.81,8.13-.8,13.3l5.41,10.18h15.45V111.2l-11,14.58-.95-15.5h-2.16Z" transform="translate(0)"/><path class="cls-7" d="M445.87,163.56l-26.4-6.69L423,142.76l26.39,6.69Z" transform="translate(0)"/><path class="cls-7" d="M447.65,163.79a7.42,7.42,0,0,1-2.56-.47,7.29,7.29,0,0,1-4.25-9.38l14.73-38.87a7.27,7.27,0,1,1,13.61,5.13l-14.72,38.87A7.28,7.28,0,0,1,447.65,163.79Z" transform="translate(0)"/><path class="cls-10" d="M443.4,88.6a7.44,7.44,0,1,0-5.27,2.19A7.2,7.2,0,0,0,443.4,88.6Z" transform="translate(0)"/><path class="cls-10" d="M440.73,96.43a7.47,7.47,0,1,0-5.28,2.19A7.2,7.2,0,0,0,440.73,96.43Z" transform="translate(0)"/><path class="cls-5" d="M450.82,97.54a7.45,7.45,0,1,0-5.27,2.19A7.23,7.23,0,0,0,450.82,97.54Z" transform="translate(0)"/><path class="cls-10" d="M456,98.4a13.07,13.07,0,1,0-9.24,3.82A12.69,12.69,0,0,0,456,98.4Z" transform="translate(0)"/><path class="cls-18" d="M429.55,100.11q-1.47,6,4.53,7.45l7.42,1.82a11.62,11.62,0,0,1,1.12.35L446,104V91.5l-12.68-4.09Z" transform="translate(0)"/><path class="cls-18" d="M438.85,110.28l10.88.49,0-16-11.4.88v12.91Z" transform="translate(0)"/><path class="cls-18" d="M447.94,94.51a3.4,3.4,0,0,0-2.48,1,3.45,3.45,0,0,0-1.06,2.52,3.64,3.64,0,0,0,3.54,3.54,3.57,3.57,0,0,0,3.53-3.54,3.49,3.49,0,0,0-1-2.52A3.45,3.45,0,0,0,447.94,94.51Z" transform="translate(0)"/><path class="cls-8" d="M432,89.91a2.71,2.71,0,0,0-2,.82,2.74,2.74,0,0,0-.8,2,2.71,2.71,0,0,0,.81,2,2.67,2.67,0,0,0,2,.82,2.59,2.59,0,0,0,2-.82,2.67,2.67,0,0,0,.83-2,2.7,2.7,0,0,0-.82-2A2.66,2.66,0,0,0,432,89.91Zm0,7.24a4.3,4.3,0,0,1-3.13-1.3,4.49,4.49,0,0,1,0-6.27A4.31,4.31,0,0,1,432,88.27a4.24,4.24,0,0,1,3.14,1.31,4.44,4.44,0,0,1,0,6.27A4.23,4.23,0,0,1,432,97.15Z" transform="translate(0)"/><path class="cls-8" d="M441,92.14a2.7,2.7,0,0,0-2,.82,2.74,2.74,0,0,0-.8,2,2.71,2.71,0,0,0,.81,2,2.66,2.66,0,0,0,2,.82,2.59,2.59,0,0,0,2-.82,2.67,2.67,0,0,0,.83-2,2.7,2.7,0,0,0-.82-2A2.66,2.66,0,0,0,441,92.14Zm0,7.24a4.3,4.3,0,0,1-3.13-1.3,4.49,4.49,0,0,1,0-6.27A4.31,4.31,0,0,1,441,90.5a4.24,4.24,0,0,1,3.14,1.31,4.44,4.44,0,0,1,0,6.27A4.23,4.23,0,0,1,441,99.38Z" transform="translate(0)"/><path class="cls-5" d="M366.67,220.66v-4.17L358,221.38l-.18,2.6,14.3-.19-2.49,5.36,4.72,1.43,4.82-11Z" transform="translate(0)"/><path class="cls-6" d="M477.82,138.56q-.3,0-.6,0a5.53,5.53,0,0,1-4.9-6.1l4-37.15a5.53,5.53,0,1,1,11,1.18l-4,37.16A5.53,5.53,0,0,1,477.82,138.56Z" transform="translate(0)"/><path class="cls-7" d="M484.58,107.2h15.67v-5.74H484.58Z" transform="translate(0)"/><path class="cls-18" d="M501.75,97.43a3.52,3.52,0,0,0-2.63-1.09H484.91a3.75,3.75,0,0,0,0,7.49h14.21a3.5,3.5,0,0,0,2.63-1.11,3.71,3.71,0,0,0,0-5.29Z" transform="translate(0)"/><path class="cls-3" d="M499.84,97.82a3,3,0,0,0,.92-2.18,3,3,0,0,0-.92-2.2,3,3,0,0,0-2.17-.88,2.89,2.89,0,0,0-1.68.49,3.47,3.47,0,0,0-.54-.61,4.27,4.27,0,0,0-3.17-1.3,4.47,4.47,0,0,0-3.23,1.3l-.06-.08a3,3,0,0,0-2.17-.87,3,3,0,0,0-3.08,3.07,3,3,0,0,0,3.08,3.08,3.12,3.12,0,0,0,1.26-.25,4.57,4.57,0,0,0,1,1.48,4.45,4.45,0,0,0,3.23,1.32,4.25,4.25,0,0,0,3.17-1.32c.2-.21.39-.41.56-.61a3,3,0,0,0,1.66.47A2.91,2.91,0,0,0,499.84,97.82Z" transform="translate(0)"/><path class="cls-5" d="M501.63,94.8c-.15-3.39-1.57-5.1-4.24-5.14l-10.5-.14c-2.65,0-4.29,1.55-4.92,4.73Z" transform="translate(0)"/><path class="cls-5" d="M482.52,106.21q.21,3.32,4.24,3.38l10.5.14c2.69,0,4.13-1.07,4.31-3.29Z" transform="translate(0)"/><path class="cls-6" d="M477.79,101.71a2.44,2.44,0,0,1-1.4-.44,2.46,2.46,0,0,1-.61-3.42l5-7.12a2.43,2.43,0,0,1,2.07-1l5.37.13a2.46,2.46,0,0,1-.06,4.91h-.06l-4.05-.1-4.21,6A2.44,2.44,0,0,1,477.79,101.71Z" transform="translate(0)"/><path class="cls-6" d="M483.65,113.76a2.41,2.41,0,0,1-1.67-.66l-5.64-5.23a2.45,2.45,0,0,1,3.33-3.6l4.93,4.57,3.7,0h0a2.46,2.46,0,0,1,0,4.91l-4.68.06Z" transform="translate(0)"/><path class="cls-6" d="M477.73,109.17a2.46,2.46,0,0,1-2.45-2.43L475.11,92a2.45,2.45,0,0,1,2.42-2.48h0A2.46,2.46,0,0,1,480,92l.18,14.73a2.46,2.46,0,0,1-2.43,2.49Z" transform="translate(0)"/><path class="cls-6" d="M477.56,94.43a2.45,2.45,0,0,1-1.68-4.24L480.32,86a2.38,2.38,0,0,1,1.6-.66l8.73-.26a2.46,2.46,0,0,1,.14,4.91l-7.8.23-3.75,3.53A2.46,2.46,0,0,1,477.56,94.43Z" transform="translate(0)"/><path class="cls-6" d="M512.14,129.05l-.22.54,8.16-21,12.06,1.55L528.75,134Z" transform="translate(0)"/><path class="cls-6" d="M510,112.17l4.65-16.57a10.35,10.35,0,0,1,8.44-7.66,10.39,10.39,0,0,1,4.24.25,9.87,9.87,0,0,1,4.59,2.54A10.88,10.88,0,0,1,533.62,93a9.89,9.89,0,0,1,1.17,7.66.57.57,0,0,0-.06.25l-3.61,13.75q-1.51,5.39-2.21,8.43l-16.8-5C509.83,117.06,509.11,115.08,510,112.17Z" transform="translate(0)"/><path class="cls-10" d="M516,91.87a3.8,3.8,0,0,1-2.28-1.71,3.9,3.9,0,0,1-.38-2.82,3.73,3.73,0,0,1,4.56-2.66l10,3.67A9.47,9.47,0,0,1,533.62,93a9.89,9.89,0,0,1,1.17,7.66.57.57,0,0,0-.06.25L533,107.55l-12.31-2.86,2.5-11Z" transform="translate(0)"/><path class="cls-6" d="M533.34,106.82a3.47,3.47,0,0,1-1.65,2.21,3.39,3.39,0,0,1-2.81.42,3.6,3.6,0,0,1-2.22-1.75,3.47,3.47,0,0,1-.38-2.72,3.43,3.43,0,0,1,1.68-2.22,3.48,3.48,0,0,1,2.78-.38,3.57,3.57,0,0,1,2.25,1.68A3.43,3.43,0,0,1,533.34,106.82Z" transform="translate(0)"/><path class="cls-6" d="M513.56,107a3,3,0,0,1-2.18.82,2.73,2.73,0,0,1-2.12-.92,3.19,3.19,0,0,1-.92-2.22,3,3,0,0,1,1-2.12l4.42-4.27a3,3,0,0,1,2.16-.86,3,3,0,0,1,2.18,1,2.93,2.93,0,0,1,.85,2.19,3.1,3.1,0,0,1-1,2.18Z" transform="translate(0)"/><path class="cls-9" d="M524.26,125.09a7.34,7.34,0,0,1,5.38-2.18l34.83.19a7.56,7.56,0,0,1,7.53,7.63,7.63,7.63,0,0,1-7.62,7.57l-34.84-.19a7.67,7.67,0,0,1-7.56-7.66A7.32,7.32,0,0,1,524.26,125.09Z" transform="translate(0)"/><path class="cls-9" d="M512.74,131.84a7.49,7.49,0,0,1-3.38,4.75L479.71,155a7.25,7.25,0,0,1-5.73.92,7.17,7.17,0,0,1-4.71-3.39,7.07,7.07,0,0,1-1.07-5.1l5-33.76,15,2.22-2.59,17.54,15.75-9.78a7.32,7.32,0,0,1,5.73-1,7.61,7.61,0,0,1,5.66,9.12Z" transform="translate(0)"/><path class="cls-11" d="M507.35,213.64h.23a3.44,3.44,0,0,1,.87.13,3.87,3.87,0,0,1,.55.25l.23.15.25.21,27.36,22.13-3.7,4.59-22.77-18.42L510,241.42l-5.89-.1.34-18.46-22.09,17.87-3.71-4.59,27-21.85.18-.14.38-.22h0a2.88,2.88,0,0,1,.75-.25l.11,0Z" transform="translate(0)"/><path class="cls-12" d="M537.08,156.55a2.18,2.18,0,0,1,.47,1.63l-2.67,22.56s0,0,0,.07q-2.16,14.9-17.42,17.61l-.4,0h-5.32v24.17h-8.31V198.45H493a2.22,2.22,0,0,1-2.21-2.21,2.1,2.1,0,0,1,.65-1.58A2.13,2.13,0,0,1,493,194h10.38v-1.92h8.31V194h5.13q11.89-2.2,13.62-13.85l2.67-22.5a2.13,2.13,0,0,1,.83-1.48,2.18,2.18,0,0,1,1.63-.47A2.22,2.22,0,0,1,537.08,156.55Z" transform="translate(0)"/><path class="cls-13" d="M485.66,184.93a5.11,5.11,0,0,1,3.76-1.55h36.11a5.28,5.28,0,0,1,5.31,5.32v0a5.29,5.29,0,0,1-5.31,5.32H489.42a5.33,5.33,0,0,1-5.32-5.32v0A5.14,5.14,0,0,1,485.66,184.93Z" transform="translate(0)"/><path class="cls-13" d="M545.41,176.76h0q-5.7-.57-21.78-2.92l11.54-44.32c3.93,0,9.37.27,16.29.83h0a5.08,5.08,0,0,1,3.53,2c.9,1.17,2.56,2.89,2.36,4.34l-6,35.44a5.34,5.34,0,0,1-6,4.61Z" transform="translate(0)"/><path class="cls-17" d="M540.61,240a5.42,5.42,0,1,1-10.84,0,5.21,5.21,0,0,1,1.57-3.83,5.43,5.43,0,0,1,9.27,3.83Z" transform="translate(0)"/><path class="cls-17" d="M503.27,243.84a5.42,5.42,0,1,1,3.84,1.59A5.23,5.23,0,0,1,503.27,243.84Z" transform="translate(0)"/><path class="cls-17" d="M482.88,243.84a5.43,5.43,0,1,1,1.59-3.83A5.23,5.23,0,0,1,482.88,243.84Z" transform="translate(0)"/><path class="cls-3" d="M447.57,169.31a9.08,9.08,0,0,1,6.89-2.25l62.17,5A9.5,9.5,0,0,1,515.11,191L453,186a9.48,9.48,0,0,1-5.38-16.69Z" transform="translate(0)"/><path class="cls-8" d="M413.52,242a4.8,4.8,0,0,1-.6-3.8A5,5,0,0,1,415.2,235l25.6-15.71a4.86,4.86,0,0,1,3.79-.6,5.06,5.06,0,0,1,1.49,9.25l-25.6,15.71a4.78,4.78,0,0,1-3.82.6A4.87,4.87,0,0,1,413.52,242Z" transform="translate(0)"/><path class="cls-9" d="M414.66,228.82,416,230.5c.07,0,2.52,3.62,7.66,11.18l-7.91,5.1-14.65-21.95Q408.43,219.58,414.66,228.82Z" transform="translate(0)"/><path class="cls-3" d="M464.71,193.13A1.22,1.22,0,0,1,465,193a6.84,6.84,0,0,1,1-.54l46.13-19.64a9.13,9.13,0,0,1,7.28-.06,9.57,9.57,0,0,1,5.25,12.35,9.16,9.16,0,0,1-5.09,5.2L474,209.69,434,236l-9.52-16.43Z" transform="translate(0)"/><path class="cls-19" d="M497.46,194.39a8.89,8.89,0,0,1-7.88,8.9c-.34,0-.68,0-1,0a8.94,8.94,0,1,1,6.33-15.27,6,6,0,0,1,.66.79A8.5,8.5,0,0,1,497.46,194.39Z" transform="translate(0)"/><path class="cls-8" d="M500.15,203.45a4.87,4.87,0,0,1-3.86-.38l-20.63-11.15a4.88,4.88,0,0,1-2.43-3,5.1,5.1,0,0,1,3.38-6.3,4.91,4.91,0,0,1,3.86.38l20.63,11.15a5.06,5.06,0,0,1-1,9.31Z" transform="translate(0)"/><path class="cls-14" d="M445.26,172.22a9.18,9.18,0,0,1,5.53-4.72,9.08,9.08,0,0,1,7.25.57l33.85,17.46a8.94,8.94,0,0,1,3.64,3.32,6,6,0,0,0-.66-.79,9,9,0,1,0-6.33,15.27c.36,0,.7,0,1,0a9.2,9.2,0,0,1-6.36-.85L449.37,185a9.31,9.31,0,0,1-4.71-5.54A9,9,0,0,1,445.26,172.22Z" transform="translate(0)"/><path class="cls-9" d="M491.32,170.32l14.11-47.79,33.86.57L525.1,183.77Z" transform="translate(0)"/><path class="cls-9" d="M493.82,205.89l.13-.35c.06-.12.11-.25.16-.38l5-12.95,8.32,4-9.27,25.59Q490.07,216.69,493.82,205.89Z" transform="translate(0)"/><path class="cls-6" d="M562.38,159.59a4.85,4.85,0,0,1,.82,3.76l-2.11,11.34,2.27,4.63a5.18,5.18,0,0,1,.51,2.5,5.07,5.07,0,0,1-.76,2.44l-2.94,4.65a5,5,0,0,1-3.17,2.25,4.81,4.81,0,0,1-3.83-.66,4.88,4.88,0,0,1-2.24-3.17,5.08,5.08,0,0,1-.13-1,2.56,2.56,0,0,1-2.12-2.5l-.06-6.88a2.47,2.47,0,0,1,.66-1.71L551,173.3l2.22-11.78a5,5,0,0,1,9.14-1.93Z" transform="translate(0)"/><path class="cls-9" d="M564.66,170.45l-14.93-2.79,7-37.31,14.93,2.79Z" transform="translate(0)"/><path class="cls-15" d="M314.63,71.07a2.41,2.41,0,0,0,.49,1.82L326.91,88a2.41,2.41,0,0,0,1.63.92,2.46,2.46,0,0,0,2.74-2.15,2.34,2.34,0,0,0-.51-1.8L319,69.87a2.36,2.36,0,0,0-1.63-.93,2.44,2.44,0,0,0-2.72,2.13Z" transform="translate(0)"/><path class="cls-15" d="M318,71.77l-3.63,6.71,13,13.09,3.29-6.26Z" transform="translate(0)"/><path class="cls-15" d="M319,81h-.81v3.17l4.35,1.25a1.62,1.62,0,0,0,2-1.13,1.54,1.54,0,0,0-.14-1.24,1.56,1.56,0,0,0-1-.78Z" transform="translate(0)"/><path class="cls-10" d="M320.46,82.31,289.88,36.84l2-1.37,30.58,45.47Z" transform="translate(0)"/><path class="cls-15" d="M313.06,71.22a2,2,0,0,0-1.55.16,2.09,2.09,0,0,0-1,1.23,2,2,0,0,0,.17,1.53,2,2,0,0,0,1.2,1l.31.08-.27.13a2,2,0,0,0-.81,2.78,2,2,0,0,0,1.22,1l1.37.39a1.7,1.7,0,0,0-.77.22,1.55,1.55,0,0,0-.78,1A1.58,1.58,0,0,0,312.3,82a1.56,1.56,0,0,0,1,.78l5,1.41V81H319l-2.2-.63a2,2,0,0,0,1-.27,2,2,0,0,0,1-1.21,2.09,2.09,0,0,0-1.39-2.53l-.65-.21A.68.68,0,0,0,317,76a2,2,0,0,0-.39-3.74Z" transform="translate(0)"/><path class="cls-7" d="M339.78,93.18l0,0-9.23-10.59L323.8,90l13.84,14.32a4.87,4.87,0,0,0,2.14.94Z" transform="translate(0)"/><path class="cls-20" d="M369.28,73.14l-7.92-6.46-21.58,26.5v12.09a1.86,1.86,0,0,0,.33,0,4.66,4.66,0,0,0,1.18,0,2,2,0,0,1,.35-.06,5,5,0,0,0,3-1.8Z" transform="translate(0)"/><path class="cls-10" d="M377.66,242.85l2.2-.1-.43-17.28-9.6,12.93-3,.45q-3.43.74-3.06,4.29l6.88-.2,6.09-7.7Z" transform="translate(0)"/><path class="cls-15" d="M379.21,182.62l-12.91-2.31,6.11,47.8-5.58,10.74,3-.45,9.6-12.93Z" transform="translate(0)"/><path class="cls-10" d="M344.11,243l2.13-.31.65-17.18L335.18,238.4l-3.08.45c-2,.23-2.92,1.62-2.9,4.19l6.31-.11,7.7-7.81Z" transform="translate(0)"/><path class="cls-15" d="M355.61,179.16l-14.38,1.15-1.78,47.8-7.35,10.74,3.08-.45,11.71-12.93Z" transform="translate(0)"/><path class="cls-5" d="M346.58,69.78A12.4,12.4,0,0,0,358,82.12V57.47A11.86,11.86,0,0,0,350.2,61,12,12,0,0,0,346.58,69.78Z" transform="translate(0)"/><path class="cls-15" d="M358.41,49.09l-11,3.66,5.29,11.92a12.07,12.07,0,0,1-3.25,10.23L367,66.72Z" transform="translate(0)"/><path class="cls-9" d="M371.53,118.89a60.74,60.74,0,0,1-4.6-7.71H343.38c0,.25,0,.48,0,.72q-1.17,19.41-4.25,78.14l41.63,1.13q-1-6.4-2.47-35.53T371.53,118.89Z" transform="translate(0)"/><path class="cls-7" d="M368,65l-3.23-3.46L351.14,73.38c1.55-1-1,.66,0,0-.33.24-.63.47-.92.7a48.37,48.37,0,0,0-3.8,3.25A18.52,18.52,0,0,0,344,80.07a11.81,11.81,0,0,0-2,3.87,10.07,10.07,0,0,0,.53,6.4,27,27,0,0,1,1.1,9.9c0,2.37,0,4.8-.1,7.3,0,1.2-.08,2.41-.16,3.64h23.55a14.8,14.8,0,0,1-1.31-3.64q-1.33-5.34,1.31-12.07a141.5,141.5,0,0,0,5.33-15c0-.14,0-.27,0-.39a18.37,18.37,0,0,0-2.18-12.39A19.61,19.61,0,0,0,368,65Z" transform="translate(0)"/><path class="cls-15" d="M370.89,108l-2.24,1.49.06-2.37a3.31,3.31,0,0,0-1.25-2.66l-1.57-1.23a3.27,3.27,0,1,0-4,5.14l.28.22L362,115.6a3.25,3.25,0,0,0,2.82,3.31,3.11,3.11,0,0,0,2.26-.51l7.5-5a3.25,3.25,0,0,0,.88-4.54,3.1,3.1,0,0,0-2.06-1.39A3.21,3.21,0,0,0,370.89,108Z" transform="translate(0)"/><path class="cls-7" d="M369.86,67.33l-8.6,6.26,19.59,26.55-12.22,9.3,6.41,8.47,16.37-12.46a5.32,5.32,0,0,0,1.08-7.36Z" transform="translate(0)"/><path class="cls-15" d="M351.92,38.53l-8-1.63L341.8,48.21l.74,9.92q.81,4.29,5.09,3.49L362,57.88Z" transform="translate(0)"/><path class="cls-5" d="M345,32.93a6.32,6.32,0,0,0-1.76,3.8,4.76,4.76,0,0,0,1.39,4.15l2.17,2.32A24.27,24.27,0,0,1,350.73,51q1.13,4.07,3.43,5.32a12.24,12.24,0,0,0,5.07,1.45c1.79.13,3.54,1.55,5.27,4.25l.76-1.08a36,36,0,0,0,2.69-4.6q3.71-7.64,2.48-13.77-1.51-7.61-7-11.27a14.38,14.38,0,0,0-12.63-1.78A13.1,13.1,0,0,0,345,32.93Z" transform="translate(0)"/><path class="cls-15" d="M344.54,42.42c-.43,1.51-.57,1.71-.41.59l-3.53,5c-1.36,1.9-1.1,3.18.79,3.87l3.09.65Z" transform="translate(0)"/><path class="cls-18" d="M229.17,143.8l-.61-7.73-41.39-6.48.16,14.36Z" transform="translate(0)"/><path class="cls-6" d="M228.56,136.07l7.76-34.15L195,104l-7.78,25.57Z" transform="translate(0)"/><path class="cls-5" d="M208.14,201.26H195.22l-.44,38.19h14.63c-.42-.08-.84-.14-1.27-.2Z" transform="translate(0)"/><path class="cls-10" d="M216.64,163.71a12.14,12.14,0,0,0-13.81-12L150.2,159a12.14,12.14,0,0,0-5.63,21.71,11.65,11.65,0,0,0,9,2.35l38.84-5.42v41.6h24.26Z" transform="translate(0)"/><path class="cls-4" d="M164.41,82.34l-.51-2.58a6,6,0,0,0-2.65-4,6.25,6.25,0,0,0-4.75-1l-10.26,2a6.33,6.33,0,0,0-5,7.44l.41,10.13-7.6,9.94,13.48,10,7.93-11.66,6.16-1.21a6.08,6.08,0,0,0,4-2.64,6.15,6.15,0,0,0,.95-4.77L166.1,91h0a2.87,2.87,0,0,0,2-.8,2.81,2.81,0,0,0,.83-2,2.65,2.65,0,0,0-.8-2Z" transform="translate(0)"/><path class="cls-10" d="M162.57,70.45a8.5,8.5,0,0,0-3.46.55q-.95.31-4.32,1.71c-2.13.86-3.94,1.53-5.43,2q-6.39,2-8.58,3.87c-1.66,1.48-2.14,3.46-1.46,5.94q.93,3.26,1.73,6.84c.28,1.2.49,2.19.64,2.94l1.11.52a19.18,19.18,0,0,0,2.63.82q4.06.93,5.69-1.2a3.11,3.11,0,0,0,.53-2.64,15.22,15.22,0,0,0-1.06-2.56,8.24,8.24,0,0,1-1-2.34,2,2,0,0,1,1-1.93,2.64,2.64,0,0,1,2.2-.5,5.52,5.52,0,0,1,1.82,1.11c1,.82,1.53,1.28,1.67,1.38a2.11,2.11,0,0,0,1.74.36,1.89,1.89,0,0,0,1.21-1.3,16.4,16.4,0,0,0,.43-2.22,9.16,9.16,0,0,1,.55-2.44,3.43,3.43,0,0,1,1.59-1.81,10.35,10.35,0,0,0,3.79-2.91c.79-1.28.67-2.83-.34-4.66A4,4,0,0,0,162.57,70.45Z" transform="translate(0)"/><path class="cls-4" d="M190.88,101.37a2.26,2.26,0,0,0-1-.06l-7.15,1.11a2.26,2.26,0,0,0-1.46.84l-5.85,7.47a2.28,2.28,0,0,0-.47,1.69,2.2,2.2,0,0,0,.87,1.51,2.27,2.27,0,0,0,3.19-.38l5.31-6.75,5.22-.82,4.69,4.1a2.26,2.26,0,0,0,1.67.56A2.31,2.31,0,0,0,198,108.2a2.24,2.24,0,0,0-.79-1.57l-5.5-4.79A2.3,2.3,0,0,0,190.88,101.37Z" transform="translate(0)"/><path class="cls-4" d="M186.59,106a1.83,1.83,0,0,0-.82,1.12l-2.27,9.52a1.84,1.84,0,0,0,1.35,2.19,1.82,1.82,0,0,0,2.18-1.34l2.28-9.52a1.77,1.77,0,0,0-.21-1.38,1.85,1.85,0,0,0-1.13-.82A1.83,1.83,0,0,0,186.59,106Z" transform="translate(0)"/><path class="cls-21" d="M179.78,115.92a3.08,3.08,0,0,1-.52-6.11l12.06-2.13a3.08,3.08,0,0,1,1.07,6.07l-12.07,2.12A3.29,3.29,0,0,1,179.78,115.92Z" transform="translate(0)"/><path class="cls-5" d="M200,97.86q-7.5,9.33-7.53,18.38l23.87,1.65Z" transform="translate(0)"/><path class="cls-22" d="M200,97.86l-2.61-3Q186,105.1,188.06,115.94l4.39.3Q192.48,107.2,200,97.86Z" transform="translate(0)"/><path class="cls-7" d="M202.39,107.65a3.31,3.31,0,1,0-4.68-4.69,3.34,3.34,0,0,0,0,4.69,3.31,3.31,0,0,0,4.68,0Z" transform="translate(0)"/><path class="cls-7" d="M203.53,115.27a3.19,3.19,0,0,0,2.35,1,3.15,3.15,0,0,0,2.33-1,3.32,3.32,0,0,0,0-4.69,3.15,3.15,0,0,0-2.33-1,3.19,3.19,0,0,0-2.35,1,3.34,3.34,0,0,0,0,4.69Z" transform="translate(0)"/><path class="cls-7" d="M195.42,115.82a3.33,3.33,0,0,0,3.3-3.33,3.31,3.31,0,1,0-5.65,2.35A3.19,3.19,0,0,0,195.42,115.82Z" transform="translate(0)"/><path class="cls-4" d="M180,107a4.45,4.45,0,0,0-3.06,1.64l-5.23,6.44a4.56,4.56,0,0,0,.66,6.4,4.34,4.34,0,0,0,3.32,1,4.41,4.41,0,0,0,3.07-1.65l5.23-6.44a4.38,4.38,0,0,0,1-3.33,4.53,4.53,0,0,0-5-4.06Z" transform="translate(0)"/><path class="cls-4" d="M177.94,111.84a2.22,2.22,0,0,0,1.71.38l11.54-2a2.23,2.23,0,0,0,1.47-.94,2.27,2.27,0,0,0-.56-3.17,2.15,2.15,0,0,0-1.7-.38l-11.54,2a2.2,2.2,0,0,0-1.47.92,2.25,2.25,0,0,0-.38,1.72A2.2,2.2,0,0,0,177.94,111.84Z" transform="translate(0)"/><path class="cls-23" d="M180.89,125.64l-8.3-14.48L132.94,134l8.31,14.48Z" transform="translate(0)"/><path class="cls-10" d="M221,125.47a12,12,0,0,0-15.13-3.19l-63.06,33.27a11.8,11.8,0,0,0-5.93,7.16,11.67,11.67,0,0,0,.86,9.23,12.12,12.12,0,0,0,16.38,5.1L199,153.36l-.08,4.07a12.17,12.17,0,0,0,11.89,12.37,12.19,12.19,0,0,0,12.37-11.89l.48-24.64A11.73,11.73,0,0,0,221,125.47Z" transform="translate(0)"/><path class="cls-24" d="M222.89,160a8.27,8.27,0,0,0-3.52-6.69,14.36,14.36,0,0,0-17,0,8.14,8.14,0,0,0,0,13.4,14.4,14.4,0,0,0,17,0A8.25,8.25,0,0,0,222.89,160Z" transform="translate(0)"/><path class="cls-10" d="M131.49,165c4.41,8.42,9.85,14.42,17.55,16.31l21.23-7.42L165,147.34Z" transform="translate(0)"/><path class="cls-17" d="M150.27,108.79q-10-10.74-16.07-4.71-14,18.11-3.77,64.85c1.22,5.63,7.92,3.49,11.48,1.83,4.31-2,8.63-4,13-6,1-.46,15.66-7.17,15.62-7.27Z" transform="translate(0)"/><path class="cls-5" d="M216.63,164.94l1.65-12.28q-6.43-4.09-12.28-1l-1.82,13.11Z" transform="translate(0)"/><path class="cls-25" d="M227.71,179.21q6.28-4.11-.29-8.23l-23.86.5.88,7.73Z" transform="translate(0)"/><path class="cls-13" d="M227.42,171l-10.79-6-12.45-.17-.62,6.71Z" transform="translate(0)"/><path class="cls-21" d="M150.57,166.72l-17.3-45.1,15.26-5.87L167,163.83Z" transform="translate(0)"/><path class="cls-4" d="M180.48,125.55a5,5,0,0,0-.89.41c-3.13,1.85-6.26,3.68-9.4,5.52l6.25,6.66,16.83-9.23c-.12-.15-1.67-1.66-1.86-1.81a9.66,9.66,0,0,0-2.47-1.33,14.08,14.08,0,0,0-6.28-.63A9,9,0,0,0,180.48,125.55Z" transform="translate(0)"/><path class="cls-17" d="M146.74,112.1l-14.27,8.65L157.2,161.6a8.11,8.11,0,0,0,4.5,3.58,8,8,0,0,0,5.76-.18,8.08,8.08,0,0,0,4.28-3.9l12.44-24-14.81-7.67-5.61,10.84Z" transform="translate(0)"/><path class="cls-13" d="M209.41,232.1H194.78l-.11,9.39,29.43.29Q222.74,234.34,209.41,232.1Z" transform="translate(0)"/><path class="cls-11" d="M180.94,237.11l3.82-4.72L157,209.9l-.19-.14a3.64,3.64,0,0,0-.39-.23l-.27-.12h0a3.07,3.07,0,0,0-.52-.14l-.33,0H155a3.26,3.26,0,0,0-.9.14l-.56.25-.24.15-.26.22-28.15,22.78,3.8,4.72,23.44-19,.35,19.29,6.06-.11-.35-19Z" transform="translate(0)"/><path class="cls-12" d="M116.66,151.62a2.16,2.16,0,0,0-.85-1.52,2.21,2.21,0,0,0-1.68-.49,2.25,2.25,0,0,0-1.52.87,2.2,2.2,0,0,0-.48,1.67l2.74,23.22a.24.24,0,0,1,0,.08q2.22,15.31,17.93,18.12l.41,0h17.53v24.87h8.55V193.6h3.94a2.29,2.29,0,0,0,2.27-2.28,2.29,2.29,0,0,0-2.27-2.29h-3.94v-2h-8.55v2H133.43q-12.24-2.28-14-14.25Z" transform="translate(0)"/><path class="cls-13" d="M132.67,187.45a5.3,5.3,0,0,0,3.88,1.61h37.16a5.5,5.5,0,0,0,5.47-5.48v0a5.46,5.46,0,0,0-5.47-5.47H136.55a5.43,5.43,0,0,0-5.47,5.47v0A5.27,5.27,0,0,0,132.67,187.45Z" transform="translate(0)"/><path class="cls-13" d="M114.74,125.59a5.27,5.27,0,0,0-1.08,4l4.8,36.9a5.39,5.39,0,0,0,2.1,3.64,5.29,5.29,0,0,0,4,1.09h0a5.49,5.49,0,0,0,4.72-6.15l-4.81-36.89a5.42,5.42,0,0,0-2.09-3.66,5.29,5.29,0,0,0-4-1.06h0A5.23,5.23,0,0,0,114.74,125.59Z" transform="translate(0)"/><path class="cls-17" d="M130.56,232.43a5.64,5.64,0,1,0,1.62,3.95A5.39,5.39,0,0,0,130.56,232.43Z" transform="translate(0)"/><path class="cls-17" d="M155.5,230.76a5.37,5.37,0,0,0-3.94,1.64,5.59,5.59,0,0,0,0,7.91,5.59,5.59,0,0,0,9.54-3.95,5.6,5.6,0,0,0-5.6-5.6Z" transform="translate(0)"/><path class="cls-17" d="M180.44,232.4a5.6,5.6,0,0,0,4,9.55,5.58,5.58,0,0,0,5.57-5.59,5.42,5.42,0,0,0-1.63-4,5.58,5.58,0,0,0-7.9,0Z" transform="translate(0)"/><path class="cls-8" d="M530,215.63l-1.84,3.66h15.69l-2.14-3.7Zm12.3,29.45,1.55-3.47H528.16l1.6,3.47Z" transform="translate(0)"/><path class="cls-7" d="M528.16,241.61h15.69V219.29H528.16Z" transform="translate(0)"/><path class="cls-8" d="M38.26,212.24l-11.71,0-1.84,3.66H40.4Zm-12,29.49H38.85l1.55-3.48H24.71Z" transform="translate(0)"/><path class="cls-7" d="M24.71,238.25H40.4V215.94H24.71Z" transform="translate(0)"/><path class="cls-26" d="M271,164.26v7.81l23.11-2.68-.49-6.24Z" transform="translate(0)"/><path class="cls-8" d="M271,164l-5.82,6.18.33,8.38L251.67,178l.43,63.38,60.71,0-.22-61.24L298,179.55l.41-11.82-5.29-5-1.1,16.67L272,178.78Z" transform="translate(0)"/></g><path class="cls-27" d="M278.09,214.92c.81-1.1.76-1.67-.17-2.92,1-.38,1-.36,2.25.79.82-1.33.11-2.44-1.84-2.92.84-.78,1.35-.73,2.9.26a1.49,1.49,0,0,0-.6-2,.88.88,0,0,0-.24-.11,5.13,5.13,0,0,0-2.55-.2,9.75,9.75,0,0,0-3,1.26c-1.79,1.1-3.49,2.39-5.25,3.55a15.34,15.34,0,0,1-2.1,1.16c-.6.27-.88,0-.71-.65a10.52,10.52,0,0,1,.36-1,63.44,63.44,0,0,1,5.07-10.7c2.43-4,5.7-6.93,10.35-7.91a12.39,12.39,0,0,1,12.49,3.95c2.68,3,2.92,6.51,1.92,10.22-.2.73-.45,1.44-.62,2.2a.89.89,0,0,0,.13.74c.15.11.51,0,.74,0a2.11,2.11,0,0,0,.77-.47,5.77,5.77,0,0,1,4.24-1.46,20.43,20.43,0,0,0,2.31-.34v-.42L302,207c1.26-1.1,2.39-2,4-1.93a1.91,1.91,0,0,1,1.89,1.25c-1.2-.14-2.43-.45-3.3.78,2.2-.2,3.05.35,2.85,1.77a5.23,5.23,0,0,0-1.34-.37,3,3,0,0,0-1.3.39c1.43.27,1.78.66,1.57,2-1.1-1-2-.38-2.88.3-2.41,1.91-4.82,3.83-7.19,5.8a95.57,95.57,0,0,1-14.4,9.95A23.82,23.82,0,0,1,265,229.62a10,10,0,0,1-4.19-2.05c-3.3-2.71-3.15-7.15.46-9.69-.08.5-.18.93-.22,1.36-.21,1.7.65,2.48,2.26,2.11a10.52,10.52,0,0,0,3.18-1.26c1.81-1.17,3.49-2.56,5.27-3.87,1-.72,2-1.45,3.07-2.08C276.53,213.18,277,213.32,278.09,214.92Zm12.59-3c0-2.86-1.95-4.4-4.54-3.69a6.88,6.88,0,0,0-4.25,3.68c-2,3.49-4.05,6.94-6.07,10.41-.31.51-.72,1-1,1.52a1.35,1.35,0,0,0,.24,1.91,1.39,1.39,0,0,0,.86.29,7.49,7.49,0,0,0,2.82-.42,19.41,19.41,0,0,0,9-6.7A13.16,13.16,0,0,0,290.68,211.92Zm-7.63-5.5a7.24,7.24,0,0,0,3.88-1.33,3.84,3.84,0,0,0,1.1-1.27c.41-.71.15-1.1-.66-1a3.91,3.91,0,0,1-3.81-1.93,4.54,4.54,0,0,0-2.9-2,2.58,2.58,0,0,0-3.25,1.68,2.43,2.43,0,0,0-.12.93c-.12,2.8,2.2,5,5.76,5Zm13.6-2.75c0-1.58-.86-2.15-2.28-1.49a5.27,5.27,0,0,0-.87.49,3.29,3.29,0,0,1-2.64.63c-.57-.12-.83.18-.86.75a3,3,0,0,0,2.84,3.24H293a3.63,3.63,0,0,0,3.69-3.57v-.06Z" transform="translate(0)"/></g></g></svg>