<svg xmlns="http://www.w3.org/2000/svg" viewBox="0 0 20.97 5.05"><defs><style>.cls-1{fill:#00ccbc;}</style></defs><g id="Livello_2" data-name="Livello 2"><g id="Livello_1-2" data-name="Livello 1"><g id="Livello_2-2" data-name="Livello 2"><g id="Livello_1-2-2" data-name="Livello 1-2"><path class="cls-1" d="M2.7,3c.11-.15.1-.23,0-.41.14,0,.14,0,.32.11.11-.18,0-.33-.26-.4.12-.11.19-.1.4,0A.21.21,0,0,0,3,2.06H3a.69.69,0,0,0-.35,0,1.57,1.57,0,0,0-.42.18c-.24.15-.48.33-.72.49a1.64,1.64,0,0,1-.29.16c-.08,0-.12,0-.09-.09a.78.78,0,0,1,0-.14,8.1,8.1,0,0,1,.7-1.49A2.2,2.2,0,0,1,3.32.05,1.73,1.73,0,0,1,5.05.6,1.45,1.45,0,0,1,5.32,2a1.71,1.71,0,0,1-.09.3c0,.1,0,.09,0,.1s.07,0,.1,0a.26.26,0,0,0,.11-.07A.85.85,0,0,1,6,2.13a1.06,1.06,0,0,0,.31,0V2L6,1.87a.78.78,0,0,1,.55-.26.24.24,0,0,1,.26.17c-.16,0-.33-.06-.46.11.31,0,.43.05.4.24H6.37c.2,0,.25.1.22.27-.15-.13-.28,0-.4,0l-1,.81a13.22,13.22,0,0,1-2,1.39A3.32,3.32,0,0,1,.84,5a1.31,1.31,0,0,1-.58-.28A.79.79,0,0,1,.21,3.56a.93.93,0,0,1,.15-.13v.19c0,.23.09.35.32.29a1.39,1.39,0,0,0,.44-.17c.25-.17.49-.36.73-.53a4.43,4.43,0,0,1,.42-.29C2.48,2.78,2.55,2.8,2.7,3Zm1.74-.4A.48.48,0,0,0,4,2.07a.5.5,0,0,0-.21,0,1,1,0,0,0-.59.51C3,3.09,2.66,3.6,2.38,4c0,.08-.1.14-.13.21s0,.3.15.3a.91.91,0,0,0,.4-.06,2.73,2.73,0,0,0,1.25-.92A1.89,1.89,0,0,0,4.44,2.6ZM3.38,1.85A1,1,0,0,0,4,1.66a.52.52,0,0,0,.16-.17c0-.1,0-.16-.1-.15a.55.55,0,0,1-.52-.26A.59.59,0,0,0,3.06.8.36.36,0,0,0,2.61,1a.32.32,0,0,0,0,.13C2.57,1.54,2.89,1.84,3.38,1.85Zm1.89-.38c0-.22-.12-.3-.32-.21l-.12.07a.46.46,0,0,1-.36.09c-.08,0-.12,0-.12.1A.43.43,0,0,0,4.71,2h0a.51.51,0,0,0,.51-.51Z"/><path class="cls-1" d="M8.9,2.1,8.77,2a.6.6,0,0,0-.29-.08A.73.73,0,0,0,8,2.18a.81.81,0,0,0-.22.59A.81.81,0,0,0,8,3.36a.71.71,0,0,0,.55.23.59.59,0,0,0,.29-.07.35.35,0,0,0,.13-.08v.12h.41V1.24H8.9Zm0,.67a.52.52,0,0,1-.11.32.33.33,0,0,1-.28.11.34.34,0,0,1-.28-.11.52.52,0,0,1-.11-.32.54.54,0,0,1,.11-.32.42.42,0,0,1,.28-.12.36.36,0,0,1,.28.12A.48.48,0,0,1,8.9,2.77Z"/><path class="cls-1" d="M10.31,1.94a.78.78,0,0,0-.57.24.85.85,0,0,0-.22.59.85.85,0,0,0,.22.59.73.73,0,0,0,.57.23.78.78,0,0,0,.47-.13.66.66,0,0,0,.27-.38V3h-.43a.28.28,0,0,1-.3.18.34.34,0,0,1-.27-.1A.36.36,0,0,1,10,2.93h1.14V2.87a.17.17,0,0,0,0-.1.81.81,0,0,0-.22-.59A.75.75,0,0,0,10.31,1.94Zm0,.38a.38.38,0,0,1,.25.09.45.45,0,0,1,.11.19H10a.5.5,0,0,1,.1-.19A.42.42,0,0,1,10.31,2.32Z"/><rect class="cls-1" x="11.3" y="1.24" width="0.41" height="2.33"/><rect class="cls-1" x="12.03" y="1.97" width="0.41" height="1.59"/><path class="cls-1" d="M12.23,1.26a.25.25,0,0,0-.25.23v0a.26.26,0,0,0,.07.19.21.21,0,0,0,.18.07.23.23,0,0,0,.19-.07.26.26,0,0,0,.07-.19.31.31,0,0,0-.07-.18A.26.26,0,0,0,12.23,1.26Z"/><polygon class="cls-1" points="13.69 1.97 13.34 3.08 12.98 1.97 12.54 1.97 13.09 3.56 13.58 3.56 14.12 1.97 13.69 1.97"/><path class="cls-1" d="M14.91,1.94a.78.78,0,0,0-.57.24.85.85,0,0,0-.22.59.85.85,0,0,0,.22.59.73.73,0,0,0,.57.23.78.78,0,0,0,.47-.13.66.66,0,0,0,.27-.38V3h-.43a.28.28,0,0,1-.3.18.34.34,0,0,1-.27-.1.4.4,0,0,1-.11-.19h1.14v0a.17.17,0,0,0,0-.1.81.81,0,0,0-.22-.59A.76.76,0,0,0,14.91,1.94Zm0,.38a.38.38,0,0,1,.25.09.45.45,0,0,1,.11.19h-.72a.5.5,0,0,1,.1-.19A.41.41,0,0,1,14.91,2.32Z"/><path class="cls-1" d="M16.73,1.94a.6.6,0,0,0-.29.08.57.57,0,0,0-.13.08V1.24H15.9V3.56h.41V3.44a.35.35,0,0,0,.13.08.59.59,0,0,0,.29.07.71.71,0,0,0,.55-.23.81.81,0,0,0,.22-.59.81.81,0,0,0-.22-.59A.76.76,0,0,0,16.73,1.94Zm.36.83a.52.52,0,0,1-.11.32.4.4,0,0,1-.56,0,.52.52,0,0,1-.11-.32.54.54,0,0,1,.11-.32.39.39,0,0,1,.55,0h0A.48.48,0,0,1,17.09,2.77Z"/><path class="cls-1" d="M18.41,1.94a.78.78,0,0,0-.58.24.81.81,0,0,0-.23.59.8.8,0,0,0,.23.59.74.74,0,0,0,.58.23A.7.7,0,0,0,19,3.36a.8.8,0,0,0,.23-.59A.81.81,0,0,0,19,2.18.78.78,0,0,0,18.41,1.94Zm.27,1.15a.32.32,0,0,1-.27.11.34.34,0,0,1-.28-.11A.47.47,0,0,1,18,2.77a.47.47,0,0,1,.12-.32.36.36,0,0,1,.28-.12.36.36,0,0,1,.27.12.43.43,0,0,1,.12.32A.4.4,0,0,1,18.68,3.09Z"/><path class="cls-1" d="M20.69,2.18a.81.81,0,0,0-1.15,0,.81.81,0,0,0-.23.59.8.8,0,0,0,.23.59.73.73,0,0,0,.57.23.74.74,0,0,0,.58-.23A.83.83,0,0,0,21,2.77.85.85,0,0,0,20.69,2.18Zm-.3.91a.33.33,0,0,1-.28.11.34.34,0,0,1-.28-.11.52.52,0,0,1-.11-.32.54.54,0,0,1,.11-.32.42.42,0,0,1,.28-.12.36.36,0,0,1,.28.12.43.43,0,0,1,.11.32A.42.42,0,0,1,20.39,3.09Z"/></g></g></g></g></svg>