<svg xmlns="http://www.w3.org/2000/svg" viewBox="0 0 174.33 33.66"><defs><style>.cls-1{fill:#38b5af;}</style></defs><g id="Livello_2" data-name="Livello 2"><g id="Livello_1-2" data-name="Livello 1"><path class="cls-1" d="M17.91,19.82c.73-1,.69-1.52-.16-2.66.88-.34.91-.32,2.05.72.74-1.21.1-2.22-1.68-2.65.77-.71,1.23-.67,2.64.23A1.36,1.36,0,0,0,20,13.52a4.71,4.71,0,0,0-2.32-.18,8.92,8.92,0,0,0-2.7,1.14c-1.63,1-3.17,2.17-4.77,3.23A13.64,13.64,0,0,1,8.3,18.76c-.55.25-.8,0-.65-.59.08-.32.22-.62.33-.93a57.7,57.7,0,0,1,4.61-9.73C14.8,3.88,17.77,1.21,22,.32A11.26,11.26,0,0,1,33.35,3.91C35.78,6.62,36,9.83,35.09,13.2c-.18.66-.41,1.31-.56,2a.8.8,0,0,0,.12.67c.13.1.46,0,.67,0a1.93,1.93,0,0,0,.7-.42,5.22,5.22,0,0,1,3.85-1.33,18.65,18.65,0,0,0,2.1-.31l0-.38-2.3-.82c1.15-1,2.18-1.8,3.63-1.75a1.74,1.74,0,0,1,1.72,1.13c-1.09-.13-2.21-.41-3,.71,2-.18,2.77.32,2.59,1.61a5.06,5.06,0,0,0-1.22-.34,2.74,2.74,0,0,0-1.18.36c1.3.24,1.62.6,1.43,1.77-1-.91-1.83-.35-2.62.27-2.19,1.74-4.38,3.48-6.54,5.27A86.56,86.56,0,0,1,21.4,30.69,21.69,21.69,0,0,1,6,33.18a9.14,9.14,0,0,1-3.81-1.87c-3-2.46-2.86-6.49.42-8.8-.07.45-.16.84-.2,1.23C2.22,25.29,3,26,4.46,25.66a9.53,9.53,0,0,0,2.89-1.14C9,23.45,10.53,22.19,12.14,21c.91-.66,1.82-1.32,2.79-1.89C16.49,18.24,16.92,18.36,17.91,19.82Zm11.44-2.73c0-2.6-1.77-4-4.13-3.35a6.24,6.24,0,0,0-3.86,3.34c-1.81,3.17-3.68,6.31-5.52,9.46-.28.47-.65.89-.9,1.38a1.24,1.24,0,0,0,1,2,6.61,6.61,0,0,0,2.57-.38,17.61,17.61,0,0,0,8.21-6.09A11.94,11.94,0,0,0,29.35,17.09Zm-6.94-5a6.56,6.56,0,0,0,3.53-1.21,3.49,3.49,0,0,0,1-1.15c.37-.65.14-1-.6-.95a3.54,3.54,0,0,1-3.46-1.75,4.12,4.12,0,0,0-2.64-1.82,2.35,2.35,0,0,0-3.06,2.37C17.07,10.13,19.18,12.11,22.41,12.12Zm12.36-2.5c0-1.43-.78-1.95-2.07-1.35a4.69,4.69,0,0,0-.79.44,3,3,0,0,1-2.4.58c-.52-.11-.75.16-.78.68a2.77,2.77,0,0,0,2.68,2.95A3.3,3.3,0,0,0,34.77,9.62Z"/><path class="cls-1" d="M51.57,18.51c0-4.18,2.71-7,6.78-7a5.27,5.27,0,0,1,4.47,2.13V4.4a.26.26,0,0,1,.29-.26h2.28c.17,0,.29.08.29.26V24.94a.26.26,0,0,1-.29.29H63.78a.31.31,0,0,1-.32-.26L63,23.19a5.34,5.34,0,0,1-4.67,2.34C54.28,25.53,51.57,22.69,51.57,18.51Zm7-4.21a4,4,0,0,0-4.15,4.21,4,4,0,0,0,4.15,4.21,4,4,0,0,0,4.27-4.21A4,4,0,0,0,58.55,14.3Z"/><path class="cls-1" d="M75.78,22.84a4.82,4.82,0,0,0,3.36-1.2.35.35,0,0,1,.26-.12.34.34,0,0,1,.24.09L81.1,23.1a.28.28,0,0,1,0,.41,7.12,7.12,0,0,1-5.44,2c-4.29,0-7.18-2.84-7.18-7a6.63,6.63,0,0,1,7-7c4.27,0,7,2.63,7,7.89,0,.21-.09.26-.3.26H71.45A4.08,4.08,0,0,0,75.78,22.84Zm3.68-5.38a4.11,4.11,0,0,0-8,0Z"/><path class="cls-1" d="M88.13,24.94a.27.27,0,0,1-.29.29H85.56a.26.26,0,0,1-.26-.29V4.43c0-.18.09-.29.26-.29h2.28a.27.27,0,0,1,.29.29Z"/><path class="cls-1" d="M93.39,5.1A1.8,1.8,0,0,1,95.32,7a1.93,1.93,0,1,1-3.86,0A1.82,1.82,0,0,1,93.39,5.1Zm1.43,19.84a.27.27,0,0,1-.29.29H92.25a.27.27,0,0,1-.26-.29V12.05a.28.28,0,0,1,.29-.29h2.25a.27.27,0,0,1,.29.29Z"/><path class="cls-1" d="M105.37,25a.44.44,0,0,1-.41.26h-2.51A.4.4,0,0,1,102,25l-5.17-12.8c-.09-.23,0-.38.26-.38h2.51A.35.35,0,0,1,100,12l3.74,9.9L107.41,12a.39.39,0,0,1,.36-.24h2.51c.23,0,.32.15.23.38Z"/><path class="cls-1" d="M119,22.84a4.82,4.82,0,0,0,3.36-1.2.35.35,0,0,1,.26-.12.34.34,0,0,1,.24.09l1.46,1.49a.28.28,0,0,1,0,.41,7.12,7.12,0,0,1-5.44,2c-4.29,0-7.19-2.84-7.19-7a6.63,6.63,0,0,1,7-7c4.26,0,7,2.63,7,7.89,0,.21-.09.26-.29.26H114.62A4.07,4.07,0,0,0,119,22.84Zm3.68-5.38a4.11,4.11,0,0,0-8,0Z"/><path class="cls-1" d="M128.68,25.23a.28.28,0,0,1-.3-.29V4.43a.28.28,0,0,1,.3-.29H131a.29.29,0,0,1,.3.29v9.23a5.19,5.19,0,0,1,4.47-2.16c4.06,0,6.78,2.83,6.78,7s-2.72,7-6.78,7A5.37,5.37,0,0,1,131,23.16l-.41,1.78a.35.35,0,0,1-.35.29Zm2.57-6.72a4.22,4.22,0,0,0,8.44,0,4,4,0,0,0-4.18-4.21A4,4,0,0,0,131.25,18.51Z"/><path class="cls-1" d="M151.4,11.44a6.66,6.66,0,0,1,7,7,7,7,0,1,1-14,0A6.65,6.65,0,0,1,151.4,11.44Zm0,11.25a4,4,0,0,0,4.18-4.21,4.17,4.17,0,1,0-8.33,0A4,4,0,0,0,151.4,22.69Z"/><path class="cls-1" d="M167.32,11.44a6.66,6.66,0,0,1,7,7,7,7,0,1,1-14,0A6.66,6.66,0,0,1,167.32,11.44Zm0,11.25a4,4,0,0,0,4.17-4.21,4.16,4.16,0,1,0-8.32,0A4,4,0,0,0,167.32,22.69Z"/></g></g></svg>