<svg width="512" height="512" viewBox="0 0 512 512" fill="none" xmlns="http://www.w3.org/2000/svg">
<g clip-path="url(#clip0_118_106)">
<path d="M415.409 495.43L256 336.017L96.5914 495.43C74.4934 517.524 38.6686 517.524 16.5706 495.43C-5.52352 473.332 -5.52352 437.507 16.5706 415.409L175.983 256L16.5706 96.5914C-5.52352 74.4934 -5.52352 38.6686 16.5706 16.5706C38.6686 -5.52352 74.4934 -5.52352 96.5914 16.5706L256 175.983L415.409 16.5706C437.507 -5.52352 473.332 -5.52352 495.43 16.5706C517.524 38.6686 517.524 74.4934 495.43 96.5914L336.017 256L495.43 415.409C517.524 437.507 517.524 473.332 495.43 495.43C473.332 517.524 437.507 517.524 415.409 495.43V495.43Z" fill="#E76E54"/>
</g>
<defs>
<clipPath id="clip0_118_106">
<rect width="512" height="512" fill="white"/>
</clipPath>
</defs>
</svg>
