<svg width="512" height="512" viewBox="0 0 512 512" fill="none" xmlns="http://www.w3.org/2000/svg">
<g clip-path="url(#clip0_112_2)">
<path d="M425.911 459.857V503.173C425.911 508.05 421.961 512 417.084 512H94.916C90.0393 512 86.0895 508.05 86.0895 503.173V459.857C86.0895 414.412 122.929 377.594 168.386 377.583C184.45 377.572 198.595 369.308 206.737 356.775C214.917 344.203 214.074 333.272 214.074 324.436L214.24 324.028C174.631 307.633 146.772 268.609 146.772 223.075V219.622C131.044 219.622 119.189 207.193 119.189 192.546V146.692C118.836 130.727 119.564 74.4252 160.232 35.2244C207.52 -10.3535 282.458 -6.6243 336.741 17.759C338.506 18.5534 338.451 21.0799 336.663 21.8192L322.508 27.6447C320.389 28.5163 320.842 31.6387 323.115 31.8814L329.988 32.6206C366.971 36.5705 397.743 58.6478 413.09 84.8074C413.233 85.0612 413.189 85.3922 412.98 85.6128C400.755 98.0803 393.914 114.862 393.914 132.338V190.946C393.914 206.757 381.105 219.622 365.228 219.622V223.075C365.228 268.609 337.369 307.633 297.76 324.028L297.926 324.436C297.926 333.021 297.015 344.099 305.263 356.775C313.406 369.308 327.55 377.572 343.614 377.583C389.071 377.594 425.911 414.412 425.911 459.857V459.857Z" fill="#FFD6A6"/>
<path d="M413.086 84.8063C413.232 85.0568 413.188 85.3922 412.974 85.6106C400.757 98.0825 393.914 114.866 393.914 132.338V190.946C393.914 206.756 381.108 219.622 365.228 219.622C365.228 186.234 365.247 168.786 365.24 159.408C365.236 153.487 359.515 149.231 353.856 150.972C336.069 156.445 315.32 159.265 293.514 154.526C255.141 146.185 244.273 131.147 212.972 123.633C177.997 115.248 146.276 142.036 146.497 176.305C146.563 187.57 146.751 201.648 146.773 219.622C131.045 219.622 119.19 207.193 119.19 192.546V146.692C118.837 130.727 119.565 74.4252 160.233 35.2244C207.517 -10.3546 282.462 -6.62319 336.736 17.7623C338.501 18.5556 338.455 21.0833 336.664 21.8203L322.508 27.648C320.392 28.5196 320.837 31.6387 323.112 31.8825L329.988 32.6206C366.975 36.5749 397.744 58.6445 413.086 84.8063V84.8063Z" fill="#42434D"/>
<path d="M353.855 150.972C359.514 149.231 365.235 153.482 365.239 159.403C365.247 169.106 365.227 187.438 365.227 223.075C365.227 268.609 337.368 307.633 297.759 324.028C226.135 353.759 146.771 300.942 146.771 223.075C146.771 202.938 146.568 188.632 146.495 176.305C146.274 142.036 177.995 115.248 212.97 123.633C244.271 131.147 255.138 146.185 293.512 154.526C315.319 159.264 336.068 156.445 353.855 150.972V150.972Z" fill="#FFDFBA"/>
<path d="M425.911 459.857V503.173C425.911 508.048 421.958 512 417.084 512H94.916C90.0416 512 86.0895 508.048 86.0895 503.173V459.857C86.0895 414.412 122.935 377.6 168.38 377.583C184.449 377.578 198.597 369.304 206.737 356.775C235.152 381.05 276.832 381.064 305.263 356.775C313.402 369.304 327.551 377.578 343.62 377.583C389.065 377.6 425.911 414.412 425.911 459.857V459.857Z" fill="#42434D"/>
<path d="M345.369 493.244H318.889C314.015 493.244 310.062 489.292 310.062 484.417C310.062 479.543 314.015 475.591 318.889 475.591H345.369C350.243 475.591 354.195 479.543 354.195 484.417C354.195 489.292 350.244 493.244 345.369 493.244Z" fill="white"/>
<path d="M212.841 404.236C208.76 405.519 204.385 406.226 199.693 406.267C154.131 406.669 116.982 442.695 116.982 488.26V496.554C116.982 505.084 110.067 512 101.536 512H94.916C90.0416 512 86.0895 508.048 86.0895 503.173V459.857C86.0895 414.412 122.935 377.6 168.38 377.583C184.449 377.578 198.597 369.304 206.737 356.775C210.018 359.577 213.531 362.096 217.232 364.301C233.509 374.001 230.915 398.553 212.841 404.236Z" fill="#4D4E59"/>
<path d="M299.159 404.236C303.24 405.519 307.615 406.226 312.307 406.267C357.869 406.669 395.018 442.695 395.018 488.26V496.554C395.018 505.084 401.933 512 410.464 512H417.084C421.958 512 425.911 508.048 425.911 503.173V459.857C425.911 414.412 389.065 377.6 343.62 377.583C327.551 377.578 313.403 369.304 305.263 356.775C301.982 359.577 298.469 362.096 294.768 364.301C278.492 374.001 281.085 398.553 299.159 404.236V404.236Z" fill="#2C2C33"/>
<path d="M299.173 342.553C271.99 353.931 242.118 354.814 212.827 342.553C214.323 336.346 214.074 332.325 214.074 324.436L214.24 324.028C240.81 335.057 271.139 335.079 297.76 324.028L297.926 324.436C297.926 332.328 297.677 336.348 299.173 342.553Z" fill="#F7C388"/>
<path d="M336.663 21.8192C326.261 26.0967 323.959 27.6038 319.181 26.8172C231.637 12.4057 162.701 58.18 153.27 147.629C153.105 149.199 152.702 150.74 152.006 152.157C145.292 165.825 146.486 175.94 146.628 192.757C146.777 210.449 120.117 211.582 119.223 193.912C119.167 192.809 119.189 195.717 119.189 146.692C118.836 130.727 119.564 74.4252 160.232 35.2244C207.52 -10.3535 282.458 -6.6243 336.741 17.759C338.506 18.5534 338.451 21.0799 336.663 21.8192V21.8192Z" fill="#4D4E59"/>
<path d="M231.282 293.62C249.234 304.846 235.067 332.395 215.417 324.509C175.061 308.314 146.773 268.968 146.773 223.076C146.773 202.915 146.57 188.681 146.497 176.306C146.428 165.228 149.692 154.933 155.326 146.356C162.407 135.575 179.503 140.273 179.597 154.24C179.669 166.657 179.872 180.828 179.872 201.01C179.871 241.277 201.042 274.708 231.282 293.62Z" fill="#FFEBD2"/>
</g>
<defs>
<clipPath id="clip0_112_2">
<rect width="512" height="512" fill="white"/>
</clipPath>
</defs>
</svg>
